{
.appVersion = "895";
DisplayStrings = (
"scozy mugglebe"
);
copyright = "Copyright 2016 Jeremy Tribby. SIL OFL License v1.1.";
date = "2016-07-12 00:27:02 +0000";
designer = "Jeremy Tribby";
designerURL = "http://tribby.com/";
familyName = Barlow;
featurePrefixes = (
{
automatic = 1;
code = "languagesystem DFLT dflt;\012";
name = Languagesystems;
}
);
features = (
{
automatic = 1;
code = "sub hyphen hyphen by hyphen_hyphen.liga;\012";
name = liga;
}
);
fontMaster = (
{
alignmentZones = (
"{800, 16}",
"{700, 10}",
"{500, 6}",
"{0, -10}",
"{-200, -12}"
);
ascender = 800;
capHeight = 700;
customParameters = (
{
name = paramArea;
value = "666";
},
{
name = paramDepth;
value = "8";
},
{
name = paramOver;
value = "0";
}
);
descender = -200;
horizontalStems = (
23,
22
);
id = "262880E7-CFE1-4BDA-902E-E24798F3240A";
userData = {
GSCornerRadius = 8;
GSOffsetHorizontal = 11;
GSOffsetMakeStroke = 1;
GSOffsetVertical = 10;
noodleExtremesAndInflections = 1;
noodleRemoveOverlap = 1;
noodleThickness = "22.0";
};
verticalStems = (
22,
21
);
visible = 1;
weight = Light;
weightValue = 23;
xHeight = 500;
},
{
alignmentZones = (
"{800, 16}",
"{700, 11}",
"{500, 8}",
"{0, -11}",
"{-200, -11}"
);
ascender = 800;
capHeight = 700;
customParameters = (
{
name = paramArea;
value = "300";
},
{
name = paramDepth;
value = "22";
},
{
name = paramOver;
value = "1";
}
);
descender = -200;
horizontalStems = (
117,
122
);
id = "6256A6A1-72B9-4ADD-8383-8893F8BF5D61";
verticalStems = (
119,
100
);
visible = 1;
weight = SemiBold;
weightValue = 119;
xHeight = 500;
},
{
alignmentZones = (
"{800, 16}",
"{700, 11}",
"{500, 9}",
"{0, -11}",
"{-200, -10}"
);
ascender = 800;
capHeight = 700;
customParameters = (
{
name = paramArea;
value = "190";
},
{
name = paramDepth;
value = "22";
},
{
name = paramOver;
value = "2";
}
);
descender = -200;
horizontalStems = (
198,
208
);
id = "4F25946F-63AC-42D6-8D55-01CF6A99025B";
userData = {
GSCornerRadius = 12;
GSOffsetHorizontal = 104;
GSOffsetMakeStroke = 1;

glyphs = (
{
color = 1;
glyphname = A;
lastChange = "2016-10-17 10:26:30 +0000";
layers = (
{
layerId = "262880E7-CFE1-4BDA-902E-E24798F3240A";
paths = (
{
closed = 1;
nodes = (
"154 0 LINE",
"308 656 LINE",
"462 0 LINE",
"484 0 LINE",
"319 700 LINE",
"297 700 LINE",
"132 0 LINE"
);
},
{
closed = 1;
nodes = (
"431 145 LINE",
"431 166 LINE",
"184 166 LINE",
"184 145 LINE"
);
}
);
width = 616;
},
{
layerId = "4F25946F-63AC-42D6-8D55-01CF6A99025B";
paths = (
{
closed = 1;
nodes = (
"192 0 LINE",
"287 450 LINE",
"382 0 LINE",
"605 0 LINE",
"403 700 LINE",
"171 700 LINE",
"-31 0 LINE"
);
},
{
closed = 1;
nodes = (
"437 75 LINE",
"437 210 LINE",
"137 210 LINE",
"137 75 LINE"
);
}
);
width = 574;
},
{
layerId = "6256A6A1-72B9-4ADD-8383-8893F8BF5D61";
paths = (
{
closed = 1;
nodes = (
"139 0 LINE",
"240 527 LINE",
"341 0 LINE",
"472 0 LINE",
"307 700 LINE",
"173 700 LINE",
"8 0 LINE"
);
},
{
closed = 1;
nodes = (
"377 101 LINE",
"377 212 LINE",
"102 212 LINE",
"102 101 LINE"
);
}
);
width = 480;
}
);
unicode = 0041;
},
{
color = 1;
glyphname = B;
lastChange = "2016-10-17 10:26:33 +0000";
layers = (
{
layerId = "262880E7-CFE1-4BDA-902E-E24798F3240A";
paths = (
{
closed = 1;
nodes = (
"313 351 LINE SMOOTH",
"428 351 OFFCURVE",
"499 415 OFFCURVE",
"499 523 CURVE SMOOTH",
"499 631 OFFCURVE",
"428 700 OFFCURVE",
"313 700 CURVE SMOOTH",
"167 700 LINE",
"167 351 LINE"
);
},
{
closed = 1;
nodes = (
"313 0 LINE SMOOTH",
"428 0 OFFCURVE",
"499 71 OFFCURVE",
"499 186 CURVE SMOOTH",
"499 301 OFFCURVE",
"428 372 OFFCURVE",
"313 372 CURVE SMOOTH",
"167 372 LINE",
"167 0 LINE"
);
},
{
closed = 1;
nodes = (
"189 351 LINE",
"313 351 LINE SMOOTH",
"415 351 OFFCURVE",
"477 288 OFFCURVE",
"477 186 CURVE SMOOTH",
"477 84 OFFCURVE",
"415 22 OFFCURVE",
"313 22 CURVE SMOOTH",
"189 22 LINE"
);
},
{
closed = 1;
nodes = (
"189 679 LINE",
"313 679 LINE SMOOTH",
"415 679 OFFCURVE",
"477 618 OFFCURVE",
"477 523 CURVE SMOOTH",
"477 428 OFFCURVE",
"415 372 OFFCURVE",
"313 372 CURVE SMOOTH",
"189 372 LINE"
);
}
);
width = 645;
},
{
layerId = "4F25946F-63AC-42D6-8D55-01CF6A99025B";
paths = (
{
closed = 1;
nodes = (
"301 308 LINE SMOOTH",
"447 308 OFFCURVE",
"545 386 OFFCURVE",
"545 502 CURVE SMOOTH",
"545 621 OFFCURVE",
"445 700 OFFCURVE",
"296 700 CURVE SMOOTH",
"48 700 LINE",
"48 308 LINE"
);
},
{
closed = 1;
nodes = (
"325 0 LINE SMOOTH",
"470 0 OFFCURVE",
"566 82 OFFCURVE",
"566 205 CURVE SMOOTH",
"566 338 OFFCURVE",
"460 426 OFFCURVE",
"300 426 CURVE",
"48 426 LINE",
"48 0 LINE"
);
},
{
closed = 1;
nodes = (
"241 286 LINE",
"306 286 LINE SMOOTH",
"337 286 OFFCURVE",
"357 266 OFFCURVE",
"357 235 CURVE SMOOTH",
"357 203 OFFCURVE",
"336 182 OFFCURVE",
"305 182 CURVE SMOOTH",
"241 182 LINE"
);
},
{
closed = 1;
nodes = (
"241 536 LINE",
"300 536 LINE",
"329 536 OFFCURVE",
"349 517 OFFCURVE",
"349 489 CURVE SMOOTH",
"349 462 OFFCURVE",
"329 444 OFFCURVE",
"300 444 CURVE",
"241 444 LINE"
);
}
);
width = 572;
},
{
layerId = "6256A6A1-72B9-4ADD-8383-8893F8BF5D61";
paths = (
{
closed = 1;
nodes = (
"284 328 LINE SMOOTH",
"415 328 OFFCURVE",
"501 399 OFFCURVE",
"501 512 CURVE SMOOTH",
"501 626 OFFCURVE",
"414 700 OFFCURVE",
"281 700 CURVE SMOOTH",
"80 700 LINE",
"80 328 LINE"
);
},
{
closed = 1;
nodes = (
"297 0 LINE SMOOTH",
"428 0 OFFCURVE",
"512 77 OFFCURVE",
"512 196 CURVE SMOOTH",
"512 321 OFFCURVE",
"422 401 OFFCURVE",
"283 401 CURVE SMOOTH",
"80 401 LINE",
"80 0 LINE"
);
},
{
closed = 1;
nodes = (
"194 316 LINE",
"287 316 LINE SMOOTH",
"350 316 OFFCURVE",
"390 276 OFFCURVE",
"390 212 CURVE SMOOTH",
"390 148 OFFCURVE",
"350 108 OFFCURVE",
"286 108 CURVE SMOOTH",
"194 108 LINE"
);
},
{
closed = 1;
nodes = (
"194 602 LINE",
"283 602 LINE SMOOTH",
"346 602 OFFCURVE",
"386 564 OFFCURVE",
"386 505 CURVE SMOOTH",
"386 446 OFFCURVE",
"346 411 OFFCURVE",
"283 411 CURVE SMOOTH",
"194 411 LINE"
);
}
);
width = 556;
}
);
unicode = 0042;
},
{
color = 1;
glyphname = C;
lastChange = "2016-10-17 10:26:31 +0000";
layers = (
{
layerId = "262880E7-CFE1-4BDA-902E-E24798F3240A";
paths = (
{
closed = 1;
nodes = (
"419 -9 OFFCURVE",
"481 50 OFFCURVE",
"481 150 CURVE SMOOTH",
"481 152 LINE",
"459 152 LINE",
"459 150 LINE SMOOTH",
"459 64 OFFCURVE",
"407 11 OFFCURVE",
"320 11 CURVE SMOOTH",
"233 11 OFFCURVE",
"181 64 OFFCURVE",
"181 150 CURVE SMOOTH",
"181 550 LINE SMOOTH",
"181 637 OFFCURVE",
"235 690 OFFCURVE",
"320 690 CURVE SMOOTH",
"405 690 OFFCURVE",
"459 637 OFFCURVE",
"459 550 CURVE SMOOTH",
"459 548 LINE",
"481 548 LINE",
"481 550 LINE SMOOTH",
"481 650 OFFCURVE",
"419 709 OFFCURVE",
"320 709 CURVE SMOOTH",
"221 709 OFFCURVE",
"159 650 OFFCURVE",
"159 550 CURVE SMOOTH",
"159 150 LINE SMOOTH",
"159 50 OFFCURVE",
"221 -9 OFFCURVE",
"320 -9 CURVE SMOOTH"
);
}
);
width = 619;
},
{
layerId = "4F25946F-63AC-42D6-8D55-01CF6A99025B";
paths = (
{
closed = 1;
nodes = (
"435 -10 OFFCURVE",
"537 67 OFFCURVE",
"537 183 CURVE SMOOTH",
"537 278 LINE",
"325 278 LINE",
"325 223 LINE SMOOTH",
"325 196 OFFCURVE",
"307 178 OFFCURVE",
"281 178 CURVE SMOOTH",
"255 178 OFFCURVE",
"237 196 OFFCURVE",
"237 223 CURVE SMOOTH",
"237 477 LINE SMOOTH",
"237 504 OFFCURVE",
"255 522 OFFCURVE",
"281 522 CURVE SMOOTH",
"307 522 OFFCURVE",
"325 504 OFFCURVE",
"325 477 CURVE SMOOTH",
"325 422 LINE",
"537 422 LINE",
"537 517 LINE SMOOTH",
"537 633 OFFCURVE",
"435 710 OFFCURVE",
"281 710 CURVE SMOOTH",
"127 710 OFFCURVE",
"25 633 OFFCURVE",
"25 517 CURVE SMOOTH",
"25 183 LINE SMOOTH",
"25 67 OFFCURVE",
"127 -10 OFFCURVE",
"281 -10 CURVE SMOOTH"
);
}
);
width = 550;
},
{
layerId = "6256A6A1-72B9-4ADD-8383-8893F8BF5D61";
paths = (
{
closed = 1;
nodes = (
"405 -10 OFFCURVE",
"488 59 OFFCURVE",
"488 168 CURVE SMOOTH",
"488 220 LINE",
"364 220 LINE",
"364 189 LINE SMOOTH",
"364 135 OFFCURVE",
"330 101 OFFCURVE",
"276 101 CURVE SMOOTH",
"222 101 OFFCURVE",
"188 135 OFFCURVE",
"188 189 CURVE SMOOTH",
"188 511 LINE SMOOTH",
"188 566 OFFCURVE",
"223 600 OFFCURVE",
"276 600 CURVE SMOOTH",
"329 600 OFFCURVE",
"364 566 OFFCURVE",
"364 511 CURVE SMOOTH",
"364 480 LINE",
"488 480 LINE",
"488 532 LINE SMOOTH",
"488 641 OFFCURVE",
"405 710 OFFCURVE",
"276 710 CURVE SMOOTH",
"148 710 OFFCURVE",
"64 641 OFFCURVE",
"64 532 CURVE SMOOTH",
"64 168 LINE SMOOTH",
"64 59 OFFCURVE",
"148 -10 OFFCURVE",
"276 -10 CURVE SMOOTH"
);
}
);
width = 523;
}
);
unicode = 0043;
},
{
color = 1;
glyphname = D;
lastChange = "2016-10-17 10:26:33 +0000";
layers = (
{
layerId = "262880E7-CFE1-4BDA-902E-E24798F3240A";
paths = (
{
closed = 1;
nodes = (
"328 0 LINE SMOOTH",
"428 0 OFFCURVE",
"489 61 OFFCURVE",
"489 161 CURVE SMOOTH",
"489 539 LINE SMOOTH",
"489 639 OFFCURVE",
"428 700 OFFCURVE",
"328 700 CURVE SMOOTH",
"167 700 LINE",
"167 0 LINE"
);
},
{
closed = 1;
nodes = (
"189 679 LINE",
"328 679 LINE SMOOTH",
"414 679 OFFCURVE",
"467 626 OFFCURVE",
"467 539 CURVE SMOOTH",
"467 161 LINE SMOOTH",
"467 75 OFFCURVE",
"414 22 OFFCURVE",
"328 22 CURVE SMOOTH",
"189 22 LINE"
);
}
);
width = 647;
},
{
layerId = "4F25946F-63AC-42D6-8D55-01CF6A99025B";
paths = (
{
closed = 1;
nodes = (
"335 0 LINE SMOOTH",
"466 0 OFFCURVE",
"547 73 OFFCURVE",
"547 193 CURVE SMOOTH",
"547 507 LINE SMOOTH",
"547 627 OFFCURVE",
"466 700 OFFCURVE",
"335 700 CURVE SMOOTH",
"48 700 LINE",
"48 0 LINE"
);
},
{
closed = 1;
nodes = (
"256 526 LINE",
"291 526 LINE SMOOTH",
"318 526 OFFCURVE",
"335 509 OFFCURVE",
"335 481 CURVE SMOOTH",
"335 219 LINE SMOOTH",
"335 191 OFFCURVE",
"318 174 OFFCURVE",
"291 174 CURVE SMOOTH",
"256 174 LINE"
);
}
);
width = 574;
},
{
layerId = "6256A6A1-72B9-4ADD-8383-8893F8BF5D61";
paths = (
{
closed = 1;
nodes = (
"298 0 LINE SMOOTH",
"415 0 OFFCURVE",
"487 67 OFFCURVE",
"487 178 CURVE SMOOTH",
"487 522 LINE SMOOTH",
"487 633 OFFCURVE",
"415 700 OFFCURVE",
"298 700 CURVE SMOOTH",
"80 700 LINE",
"80 0 LINE"
);
},
{
closed = 1;
nodes = (
"202 597 LINE",
"275 597 LINE SMOOTH",
"329 597 OFFCURVE",
"363 563 OFFCURVE",
"363 508 CURVE SMOOTH",
"363 192 LINE SMOOTH",
"363 137 OFFCURVE",
"329 104 OFFCURVE",
"275 104 CURVE SMOOTH",
"202 104 LINE"
);
}
);
width = 550;
}
);
unicode = 0044;
},
{
color = 1;
glyphname = E;
lastChange = "2016-10-17 10:26:34 +0000";
layers = (
{
layerId = "262880E7-CFE1-4BDA-902E-E24798F3240A";
paths = (
{
closed = 1;
nodes = (
"488 0 LINE",
"488 22 LINE",
"189 22 LINE",
"189 679 LINE",
"488 679 LINE",
"488 700 LINE",
"167 700 LINE",
"167 0 LINE"
);
},
{
closed = 1;
nodes = (
"383 340 LINE",
"383 361 LINE",
"178 361 LINE",
"178 340 LINE"
);
}
);
width = 619;
},
{
layerId = "4F25946F-63AC-42D6-8D55-01CF6A99025B";
paths = (
{
closed = 1;
nodes = (
"510 0 LINE",
"510 188 LINE",
"256 188 LINE",
"256 512 LINE",
"510 512 LINE",
"510 700 LINE",
"48 700 LINE",
"48 0 LINE"
);
},
{
closed = 1;
nodes = (
"400 266 LINE",
"400 434 LINE",
"170 434 LINE",
"170 266 LINE"
);
}
);
width = 519;
},
{
layerId = "6256A6A1-72B9-4ADD-8383-8893F8BF5D61";
paths = (
{
closed = 1;
nodes = (
"469 0 LINE",
"469 111 LINE",
"204 111 LINE",
"204 589 LINE",
"469 589 LINE",
"469 700 LINE",
"80 700 LINE",
"80 0 LINE"
);
},
{
closed = 1;
nodes = (
"361 300 LINE",
"361 400 LINE",
"152 400 LINE",
"152 300 LINE"
);
}
);
width = 487;
}
);
unicode = 0045;
},
{
color = 1;
glyphname = F;
lastChange = "2016-10-17 10:26:34 +0000";
layers = (
{
layerId = "262880E7-CFE1-4BDA-902E-E24798F3240A";
paths = (
{
closed = 1;
nodes = (
"189 0 LINE",
"189 679 LINE",
"488 679 LINE",
"488 700 LINE",
"167 700 LINE",
"167 0 LINE"
);
},
{
closed = 1;
nodes = (
"383 340 LINE",
"383 361 LINE",
"178 361 LINE",
"178 340 LINE"
);
}
);
width = 617;
},
{
layerId = "4F25946F-63AC-42D6-8D55-01CF6A99025B";
paths = (
{
closed = 1;
nodes = (
"256 0 LINE",
"256 512 LINE",
"524 512 LINE",
"524 700 LINE",
"48 700 LINE",
"48 0 LINE"
);
},
{
closed = 1;
nodes = (
"412 266 LINE",
"412 434 LINE",
"169 434 LINE",
"169 266 LINE"
);
}
);
width = 498;
},
{
layerId = "6256A6A1-72B9-4ADD-8383-8893F8BF5D61";
paths = (
{
closed = 1;
nodes = (
"206 0 LINE",
"206 589 LINE",
"467 589 LINE",
"467 700 LINE",
"80 700 LINE",
"80 0 LINE"
);
},
{
closed = 1;
nodes = (
"359 300 LINE",
"359 400 LINE",
"154 400 LINE",
"154 300 LINE"
);
}
);
width = 462;
}
);
unicode = 0046;
},
{
color = 1;
glyphname = G;
lastChange = "2016-10-17 10:26:34 +0000";
layers = (
{
layerId = "262880E7-CFE1-4BDA-902E-E24798F3240A";
paths = (
{
closed = 1;
nodes = (
"419 -9 OFFCURVE",
"481 51 OFFCURVE",
"481 150 CURVE",
"481 361 LINE",
"320 361 LINE",
"320 340 LINE",
"459 340 LINE",
"459 150 LINE",
"459 63 OFFCURVE",
"407 11 OFFCURVE",
"320 11 CURVE SMOOTH",
"233 11 OFFCURVE",
"181 63 OFFCURVE",
"181 150 CURVE",
"181 550 LINE",
"181 637 OFFCURVE",
"233 690 OFFCURVE",
"320 690 CURVE SMOOTH",
"407 690 OFFCURVE",
"459 637 OFFCURVE",
"459 550 CURVE",
"481 550 LINE",
"481 649 OFFCURVE",
"419 709 OFFCURVE",
"320 709 CURVE SMOOTH",
"221 709 OFFCURVE",
"159 649 OFFCURVE",
"159 550 CURVE",
"159 150 LINE",
"159 51 OFFCURVE",
"221 -9 OFFCURVE",
"320 -9 CURVE SMOOTH"
);
}
);
width = 631;
},
{
layerId = "4F25946F-63AC-42D6-8D55-01CF6A99025B";
paths = (
{
closed = 1;
nodes = (
"429 -10 OFFCURVE",
"531 88 OFFCURVE",
"531 234 CURVE SMOOTH",
"531 400 LINE",
"275 400 LINE",
"275 270 LINE",
"319 270 LINE",
"319 234 LINE SMOOTH",
"319 200 OFFCURVE",
"301 178 OFFCURVE",
"275 178 CURVE SMOOTH",
"249 178 OFFCURVE",
"231 200 OFFCURVE",
"231 234 CURVE SMOOTH",
"231 466 LINE SMOOTH",
"231 500 OFFCURVE",
"249 522 OFFCURVE",
"275 522 CURVE SMOOTH",
"301 522 OFFCURVE",
"319 500 OFFCURVE",
"319 466 CURVE",
"531 466 LINE",
"531 612 OFFCURVE",
"429 710 OFFCURVE",
"275 710 CURVE SMOOTH",
"121 710 OFFCURVE",
"19 612 OFFCURVE",
"19 466 CURVE SMOOTH",
"19 234 LINE SMOOTH",
"19 88 OFFCURVE",
"121 -10 OFFCURVE",
"275 -10 CURVE SMOOTH"
);
}
);
width = 547;
},
{
layerId = "6256A6A1-72B9-4ADD-8383-8893F8BF5D61";
paths = (
{
closed = 1;
nodes = (
"401 -9 OFFCURVE",
"485 71 OFFCURVE",
"485 195 CURVE",
"485 382 LINE",
"273 382 LINE",
"273 285 LINE",
"361 285 LINE",
"361 195 LINE",
"361 136 OFFCURVE",
"327 100 OFFCURVE",
"273 100 CURVE SMOOTH",
"219 100 OFFCURVE",
"185 136 OFFCURVE",
"185 195 CURVE",
"185 505 LINE",
"185 564 OFFCURVE",
"219 600 OFFCURVE",
"273 600 CURVE SMOOTH",
"327 600 OFFCURVE",
"361 564 OFFCURVE",
"361 505 CURVE",
"485 505 LINE",
"485 629 OFFCURVE",
"401 709 OFFCURVE",
"273 709 CURVE SMOOTH",
"145 709 OFFCURVE",
"61 629 OFFCURVE",
"61 505 CURVE",
"61 195 LINE",
"61 71 OFFCURVE",
"145 -9 OFFCURVE",
"273 -9 CURVE SMOOTH"
);
}
);
width = 537;
}
);
unicode = 0047;
},
{
color = 1;
glyphname = H;
lastChange = "2016-10-17 10:26:31 +0000";
layers = (
{
layerId = "262880E7-CFE1-4BDA-902E-E24798F3240A";
paths = (
{
closed = 1;
nodes = (
"489 0 LINE",
"489 700 LINE",
"467 700 LINE",
"467 0 LINE"
);
},
{
closed = 1;
nodes = (
"189 0 LINE",
"189 700 LINE",
"167 700 LINE",
"167 0 LINE"
);
},
{
closed = 1;
nodes = (
"472 340 LINE",
"472 361 LINE",
"184 361 LINE",
"184 340 LINE"
);
}
);
width = 656;
},
{
layerId = "4F25946F-63AC-42D6-8D55-01CF6A99025B";
paths = (
{
closed = 1;
nodes = (
"556 0 LINE",
"556 700 LINE",
"346 700 LINE",
"346 0 LINE"
);
},
{
closed = 1;
nodes = (
"258 0 LINE",
"258 700 LINE",
"48 700 LINE",
"48 0 LINE"
);
},
{
closed = 1;
nodes = (
"362 246 LINE",
"362 434 LINE",
"242 434 LINE",
"242 246 LINE"
);
}
);
width = 604;
},
{
layerId = "6256A6A1-72B9-4ADD-8383-8893F8BF5D61";
paths = (
{
closed = 1;
nodes = (
"502 0 LINE",
"502 700 LINE",
"379 700 LINE",
"379 0 LINE"
);
},
{
closed = 1;
nodes = (
"203 0 LINE",
"203 700 LINE",
"80 700 LINE",
"80 0 LINE"
);
},
{
closed = 1;
nodes = (
"390 290 LINE",
"390 400 LINE",
"192 400 LINE",
"192 290 LINE"
);
}
);
width = 582;
}
);
unicode = 0048;
},
{
color = 1;
glyphname = I;
lastChange = "2016-10-17 10:26:31 +0000";
layers = (
{
layerId = "262880E7-CFE1-4BDA-902E-E24798F3240A";
paths = (
{
closed = 1;
nodes = (
"189 0 LINE",
"189 700 LINE",
"167 700 LINE",
"167 0 LINE"
);
}
);
width = 356;
},
{
layerId = "4F25946F-63AC-42D6-8D55-01CF6A99025B";
paths = (
{
closed = 1;
nodes = (
"250 0 LINE",
"250 700 LINE",
"48 700 LINE",
"48 0 LINE"
);
}
);
width = 298;
},
{
layerId = "6256A6A1-72B9-4ADD-8383-8893F8BF5D61";
paths = (
{
closed = 1;
nodes = (
"199 0 LINE",
"199 700 LINE",
"80 700 LINE",
"80 0 LINE"
);
}
);
width = 279;
}
);
unicode = 0049;
},
{
color = 1;
glyphname = J;
lastChange = "2016-10-17 10:26:33 +0000";
layers = (
{
layerId = "262880E7-CFE1-4BDA-902E-E24798F3240A";
paths = (
{
closed = 1;
nodes = (
"391 -11 OFFCURVE",
"451 50 OFFCURVE",
"451 150 CURVE SMOOTH",
"451 700 LINE",
"429 700 LINE",
"429 150 LINE",
"429 64 OFFCURVE",
"377 11 OFFCURVE",
"293 11 CURVE SMOOTH",
"209 11 OFFCURVE",
"157 64 OFFCURVE",
"157 150 CURVE SMOOTH",
"157 195 LINE",
"135 195 LINE",
"135 150 LINE SMOOTH",
"135 50 OFFCURVE",
"195 -11 OFFCURVE",
"293 -11 CURVE SMOOTH"
);
}
);
width = 614;
},
{
layerId = "4F25946F-63AC-42D6-8D55-01CF6A99025B";
paths = (
{
closed = 1;
nodes = (
"378 -10 OFFCURVE",
"478 88 OFFCURVE",
"478 235 CURVE",
"473 702 LINE",
"261 700 LINE",
"266 233 LINE",
"266 200 OFFCURVE",
"250 178 OFFCURVE",
"227 178 CURVE SMOOTH",
"204 178 OFFCURVE",
"188 200 OFFCURVE",
"188 234 CURVE SMOOTH",
"188 290 LINE",
"-24 290 LINE",
"-24 234 LINE SMOOTH",
"-24 88 OFFCURVE",
"76 -10 OFFCURVE",
"227 -10 CURVE SMOOTH"
);
}
);
width = 510;
},
{
layerId = "6256A6A1-72B9-4ADD-8383-8893F8BF5D61";
paths = (
{
closed = 1;
nodes = (
"341 -10 OFFCURVE",
"423 70 OFFCURVE",
"422 196 CURVE SMOOTH",
"419 701 LINE",
"296 700 LINE",
"298 195 LINE",
"298 137 OFFCURVE",
"266 101 OFFCURVE",
"214 101 CURVE SMOOTH",
"163 101 OFFCURVE",
"130 137 OFFCURVE",
"130 195 CURVE SMOOTH",
"130 246 LINE",
"6 246 LINE",
"6 195 LINE SMOOTH",
"6 70 OFFCURVE",
"88 -10 OFFCURVE",
"214 -10 CURVE SMOOTH"
);
}
);
width = 492;
}
);
unicode = 004A;
},
{
color = 1;
glyphname = K;
lastChange = "2016-10-17 10:26:31 +0000";
layers = (
{
layerId = "262880E7-CFE1-4BDA-902E-E24798F3240A";
paths = (
{
closed = 1;
nodes = (
"499 0 LINE",
"203 350 LINE",
"499 700 LINE",
"473 700 LINE",
"175 350 LINE",
"473 0 LINE"
);
},
{
closed = 1;
nodes = (
"189 0 LINE",
"189 700 LINE",
"167 700 LINE",
"167 0 LINE"
);
}
);
width = 629;
},
{
layerId = "4F25946F-63AC-42D6-8D55-01CF6A99025B";
paths = (
{
closed = 1;
nodes = (
"579 0 LINE",
"404 350 LINE",
"576 700 LINE",
"326 700 LINE",
"186 350 LINE",
"326 0 LINE"
);
},
{
closed = 1;
nodes = (
"256 0 LINE",
"256 700 LINE",
"48 700 LINE",
"48 0 LINE"
);
}
);
width = 553;
},
{
layerId = "6256A6A1-72B9-4ADD-8383-8893F8BF5D61";
paths = (
{
closed = 1;
nodes = (
"500 0 LINE",
"265 350 LINE",
"511 700 LINE",
"362 700 LINE",
"127 350 LINE",
"347 0 LINE"
);
},
{
closed = 1;
nodes = (
"203 0 LINE",
"203 700 LINE",
"80 700 LINE",
"80 0 LINE"
);
}
);
width = 505;
}
);
unicode = 004B;
},
{
color = 1;
glyphname = L;
lastChange = "2016-10-17 10:26:30 +0000";
layers = (
{
layerId = "262880E7-CFE1-4BDA-902E-E24798F3240A";
paths = (
{
closed = 1;
nodes = (
"478 0 LINE",
"478 22 LINE",
"189 22 LINE",
"189 700 LINE",
"167 700 LINE",
"167 0 LINE"
);
}
);
width = 607;
},
{
layerId = "4F25946F-63AC-42D6-8D55-01CF6A99025B";
paths = (
{
closed = 1;
nodes = (
"505 0 LINE",
"505 192 LINE",
"256 192 LINE",
"256 700 LINE",
"48 700 LINE",
"48 0 LINE"
);
}
);
width = 480;
},
{
layerId = "6256A6A1-72B9-4ADD-8383-8893F8BF5D61";
paths = (
{
closed = 1;
nodes = (
"470 0 LINE",
"470 113 LINE",
"202 113 LINE",
"202 700 LINE",
"80 700 LINE",
"80 0 LINE"
);
}
);
width = 464;
}
);
unicode = 004C;
},
{
color = 1;
glyphname = M;
lastChange = "2016-10-17 10:26:34 +0000";
layers = (
{
layerId = "262880E7-CFE1-4BDA-902E-E24798F3240A";
paths = (
{
closed = 1;
nodes = (
"186 0 LINE",
"189 655 LINE",
"346 324 LINE",
"504 655 LINE",
"504 0 LINE",
"525 0 LINE",
"525 700 LINE",
"503 700 LINE",
"346 372 LINE",
"189 700 LINE",
"167 700 LINE",
"167 0 LINE"
);
}
);
width = 692;
},
{
layerId = "4F25946F-63AC-42D6-8D55-01CF6A99025B";
paths = (
{
closed = 1;
nodes = (
"260 0 LINE",
"260 364 LINE",
"342 232 LINE",
"424 364 LINE",
"424 0 LINE",
"636 0 LINE",
"636 698 LINE",
"430 698 LINE",
"342 522 LINE",
"251 702 LINE",
"48 702 LINE",
"48 0 LINE"
);
}
);
width = 684;
},
{
layerId = "6256A6A1-72B9-4ADD-8383-8893F8BF5D61";
paths = (
{
closed = 1;
nodes = (
"202 0 LINE",
"204 468 LINE",
"320 254 LINE",
"438 468 LINE",
"438 0 LINE",
"561 0 LINE",
"561 699 LINE",
"440 699 LINE",
"320 448 LINE",
"198 701 LINE",
"80 701 LINE",
"80 0 LINE"
);
}
);
width = 641;
}
);
unicode = 004D;
},
{
color = 1;
glyphname = N;
lastChange = "2016-10-17 10:26:34 +0000";
layers = (
{
layerId = "262880E7-CFE1-4BDA-902E-E24798F3240A";
paths = (
{
closed = 1;
nodes = (
"189 0 LINE",
"189 647 LINE",
"466 0 LINE",
"489 0 LINE",
"489 700 LINE",
"467 700 LINE",
"467 53 LINE",
"190 700 LINE",
"167 700 LINE",
"167 0 LINE"
);
}
);
width = 656;
},
{
layerId = "4F25946F-63AC-42D6-8D55-01CF6A99025B";
paths = (
{
closed = 1;
nodes = (
"248 0 LINE",
"251 269 LINE",
"399 0 LINE",
"563 0 LINE",
"563 700 LINE",
"366 700 LINE",
"366 404 LINE",
"212 700 LINE",
"48 700 LINE",
"48 0 LINE"
);
}
);
width = 611;
},
{
layerId = "6256A6A1-72B9-4ADD-8383-8893F8BF5D61";
paths = (
{
closed = 1;
nodes = (
"198 0 LINE",
"200 393 LINE",
"407 0 LINE",
"506 0 LINE",
"506 700 LINE",
"390 700 LINE",
"390 284 LINE",
"179 700 LINE",
"80 700 LINE",
"80 0 LINE"
);
}
);
width = 586;
}
);
unicode = 004E;
},
{
color = 1;
glyphname = O;
lastChange = "2016-10-17 10:26:31 +0000";
layers = (
{
layerId = "262880E7-CFE1-4BDA-902E-E24798F3240A";
paths = (
{
closed = 1;
nodes = (
"408 -9 OFFCURVE",
"480 60 OFFCURVE",
"480 150 CURVE SMOOTH",
"480 550 LINE SMOOTH",
"480 640 OFFCURVE",
"408 709 OFFCURVE",
"319 709 CURVE SMOOTH",
"230 709 OFFCURVE",
"158 640 OFFCURVE",
"158 550 CURVE SMOOTH",
"158 150 LINE SMOOTH",
"158 60 OFFCURVE",
"230 -9 OFFCURVE",
"319 -9 CURVE SMOOTH"
);
},
{
closed = 1;
nodes = (
"240 11 OFFCURVE",
"180 72 OFFCURVE",
"180 150 CURVE SMOOTH",
"180 550 LINE SMOOTH",
"180 629 OFFCURVE",
"242 690 OFFCURVE",
"319 690 CURVE SMOOTH",
"396 690 OFFCURVE",
"458 629 OFFCURVE",
"458 550 CURVE SMOOTH",
"458 150 LINE SMOOTH",
"458 72 OFFCURVE",
"398 11 OFFCURVE",
"319 11 CURVE SMOOTH"
);
}
);
width = 638;
},
{
layerId = "4F25946F-63AC-42D6-8D55-01CF6A99025B";
paths = (
{
closed = 1;
nodes = (
"435 -10 OFFCURVE",
"539 87 OFFCURVE",
"539 233 CURVE SMOOTH",
"539 467 LINE SMOOTH",
"539 613 OFFCURVE",
"435 710 OFFCURVE",
"279 710 CURVE SMOOTH",
"123 710 OFFCURVE",
"19 613 OFFCURVE",
"19 467 CURVE SMOOTH",
"19 233 LINE SMOOTH",
"19 87 OFFCURVE",
"123 -10 OFFCURVE",
"279 -10 CURVE SMOOTH"
);
},
{
closed = 1;
nodes = (
"250 174 OFFCURVE",
"231 194 OFFCURVE",
"231 223 CURVE SMOOTH",
"231 477 LINE SMOOTH",
"231 506 OFFCURVE",
"250 526 OFFCURVE",
"279 526 CURVE SMOOTH",
"308 526 OFFCURVE",
"327 506 OFFCURVE",
"327 477 CURVE SMOOTH",
"327 223 LINE SMOOTH",
"327 194 OFFCURVE",
"308 174 OFFCURVE",
"279 174 CURVE SMOOTH"
);
}
);
width = 558;
},
{
layerId = "6256A6A1-72B9-4ADD-8383-8893F8BF5D61";
paths = (
{
closed = 1;
nodes = (
"399 -10 OFFCURVE",
"488 74 OFFCURVE",
"488 195 CURVE SMOOTH",
"488 505 LINE SMOOTH",
"488 626 OFFCURVE",
"399 710 OFFCURVE",
"274 710 CURVE SMOOTH",
"149 710 OFFCURVE",
"60 626 OFFCURVE",
"60 505 CURVE SMOOTH",
"60 195 LINE SMOOTH",
"60 74 OFFCURVE",
"149 -10 OFFCURVE",
"274 -10 CURVE SMOOTH"
);
},
{
closed = 1;
nodes = (
"222 98 OFFCURVE",
"184 137 OFFCURVE",
"184 189 CURVE SMOOTH",
"184 511 LINE SMOOTH",
"184 563 OFFCURVE",
"223 602 OFFCURVE",
"274 602 CURVE SMOOTH",
"325 602 OFFCURVE",
"364 563 OFFCURVE",
"364 511 CURVE SMOOTH",
"364 189 LINE SMOOTH",
"364 137 OFFCURVE",
"326 98 OFFCURVE",
"274 98 CURVE SMOOTH"
);
}
);
width = 548;
}
);
unicode = 004F;
},
{
color = 1;
glyphname = P;
lastChange = "2016-10-17 10:26:32 +0000";
layers = (
{
layerId = "262880E7-CFE1-4BDA-902E-E24798F3240A";
paths = (
{
closed = 1;
nodes = (
"189 0 LINE",
"189 679 LINE",
"313 679 LINE SMOOTH",
"413 679 OFFCURVE",
"474 616 OFFCURVE",
"474 513 CURVE SMOOTH",
"474 409 OFFCURVE",
"413 346 OFFCURVE",
"313 346 CURVE SMOOTH",
"184 346 LINE",
"184 324 LINE",
"313 325 LINE SMOOTH",
"426 326 OFFCURVE",
"496 397 OFFCURVE",
"496 512 CURVE SMOOTH",
"496 629 OFFCURVE",
"426 700 OFFCURVE",
"313 700 CURVE SMOOTH",
"167 700 LINE",
"167 0 LINE"
);
}
);
width = 633;
},
{
layerId = "4F25946F-63AC-42D6-8D55-01CF6A99025B";
paths = (
{
closed = 1;
nodes = (
"260 0 LINE",
"260 512 LINE",
"289 512 LINE SMOOTH",
"318 512 OFFCURVE",
"338 492 OFFCURVE",
"338 462 CURVE SMOOTH",
"338 432 OFFCURVE",
"318 412 OFFCURVE",
"289 412 CURVE SMOOTH",
"244 412 LINE",
"244 233 LINE",
"328 233 LINE SMOOTH",
"461 233 OFFCURVE",
"550 326 OFFCURVE",
"550 465 CURVE SMOOTH",
"550 606 OFFCURVE",
"458 700 OFFCURVE",
"319 700 CURVE SMOOTH",
"48 700 LINE",
"48 0 LINE"
);
}
);
width = 535;
},
{
layerId = "6256A6A1-72B9-4ADD-8383-8893F8BF5D61";
paths = (
{
closed = 1;
nodes = (
"204 0 LINE",
"204 589 LINE",
"277 589 LINE SMOOTH",
"339 589 OFFCURVE",
"378 549 OFFCURVE",
"378 486 CURVE SMOOTH",
"378 421 OFFCURVE",
"339 381 OFFCURVE",
"277 381 CURVE SMOOTH",
"193 381 LINE",
"193 275 LINE",
"298 276 LINE SMOOTH",
"422 277 OFFCURVE",
"502 359 OFFCURVE",
"502 487 CURVE SMOOTH",
"502 617 OFFCURVE",
"420 700 OFFCURVE",
"293 700 CURVE SMOOTH",
"80 700 LINE",
"80 0 LINE"
);
}
);
width = 517;
}
);
unicode = 0050;
},
{
color = 1;
glyphname = Q;
lastChange = "2016-10-17 10:26:32 +0000";
layers = (
{
layerId = "262880E7-CFE1-4BDA-902E-E24798F3240A";
paths = (
{
closed = 1;
nodes = (
"408 -11 OFFCURVE",
"480 60 OFFCURVE",
"480 150 CURVE SMOOTH",
"480 550 LINE SMOOTH",
"480 640 OFFCURVE",
"408 711 OFFCURVE",
"319 711 CURVE SMOOTH",
"230 711 OFFCURVE",
"158 640 OFFCURVE",
"158 550 CURVE SMOOTH",
"158 150 LINE SMOOTH",
"158 60 OFFCURVE",
"230 -11 OFFCURVE",
"319 -11 CURVE SMOOTH"
);
},
{
closed = 1;
nodes = (
"497 -41 LINE",
"288 11 LINE",
"283 -7 LINE",
"490 -65 LINE"
);
},
{
closed = 1;
nodes = (
"240 11 OFFCURVE",
"180 72 OFFCURVE",
"180 150 CURVE SMOOTH",
"180 550 LINE SMOOTH",
"180 629 OFFCURVE",
"242 690 OFFCURVE",
"319 690 CURVE SMOOTH",
"396 690 OFFCURVE",
"458 629 OFFCURVE",
"458 550 CURVE SMOOTH",
"458 150 LINE SMOOTH",
"458 72 OFFCURVE",
"398 11 OFFCURVE",
"319 11 CURVE SMOOTH"
);
}
);
width = 639;
},
{
layerId = "4F25946F-63AC-42D6-8D55-01CF6A99025B";
paths = (
{
closed = 1;
nodes = (
"430 -10 OFFCURVE",
"532 87 OFFCURVE",
"532 233 CURVE SMOOTH",
"532 467 LINE SMOOTH",
"532 613 OFFCURVE",
"430 710 OFFCURVE",
"276 710 CURVE SMOOTH",
"122 710 OFFCURVE",
"20 613 OFFCURVE",
"20 467 CURVE SMOOTH",
"20 233 LINE SMOOTH",
"20 87 OFFCURVE",
"122 -10 OFFCURVE",
"276 -10 CURVE SMOOTH"
);
},
{
closed = 1;
nodes = (
"548 113 LINE",
"224 118 LINE",
"224 -6 LINE",
"540 -43 LINE"
);
},
{
closed = 1;
nodes = (
"250 178 OFFCURVE",
"232 196 OFFCURVE",
"232 223 CURVE SMOOTH",
"232 477 LINE SMOOTH",
"232 504 OFFCURVE",
"250 522 OFFCURVE",
"276 522 CURVE SMOOTH",
"302 522 OFFCURVE",
"320 504 OFFCURVE",
"320 477 CURVE SMOOTH",
"320 223 LINE SMOOTH",
"320 196 OFFCURVE",
"302 178 OFFCURVE",
"276 178 CURVE SMOOTH"
);
}
);
width = 568;
},
{
layerId = "6256A6A1-72B9-4ADD-8383-8893F8BF5D61";
paths = (
{
closed = 1;
nodes = (
"396 -10 OFFCURVE",
"484 74 OFFCURVE",
"484 195 CURVE SMOOTH",
"484 505 LINE SMOOTH",
"484 626 OFFCURVE",
"396 710 OFFCURVE",
"272 710 CURVE SMOOTH",
"148 710 OFFCURVE",
"60 626 OFFCURVE",
"60 505 CURVE SMOOTH",
"60 195 LINE SMOOTH",
"60 74 OFFCURVE",
"148 -10 OFFCURVE",
"272 -10 CURVE SMOOTH"
);
},
{
closed = 1;
nodes = (
"500 42 LINE",
"230 68 LINE",
"228 -6 LINE",
"493 -53 LINE"
);
},
{
closed = 1;
nodes = (
"222 101 OFFCURVE",
"184 139 OFFCURVE",
"184 189 CURVE SMOOTH",
"184 511 LINE SMOOTH",
"184 562 OFFCURVE",
"222 600 OFFCURVE",
"272 600 CURVE SMOOTH",
"322 600 OFFCURVE",
"360 562 OFFCURVE",
"360 511 CURVE SMOOTH",
"360 189 LINE SMOOTH",
"360 139 OFFCURVE",
"323 101 OFFCURVE",
"272 101 CURVE SMOOTH"
);
}
);
width = 553;
}
);
unicode = 0051;
},
{
color = 1;
glyphname = R;
lastChange = "2016-10-17 10:26:31 +0000";
layers = (
{
layerId = "262880E7-CFE1-4BDA-902E-E24798F3240A";
paths = (
{
closed = 1;
nodes = (
"189 0 LINE",
"189 679 LINE",
"316 679 LINE SMOOTH",
"416 679 OFFCURVE",
"477 616 OFFCURVE",
"477 512 CURVE SMOOTH",
"477 408 OFFCURVE",
"416 344 OFFCURVE",
"316 344 CURVE SMOOTH",
"184 344 LINE",
"184 322 LINE",
"316 323 LINE SMOOTH",
"429 324 OFFCURVE",
"499 395 OFFCURVE",
"499 511 CURVE SMOOTH",
"499 628 OFFCURVE",
"429 700 OFFCURVE",
"316 700 CURVE SMOOTH",
"167 700 LINE",
"167 0 LINE"
);
},
{
closed = 1;
nodes = (
"457 0 LINE",
"338 340 LINE",
"318 332 LINE",
"433 0 LINE"
);
}
);
width = 636;
},
{
layerId = "4F25946F-63AC-42D6-8D55-01CF6A99025B";
paths = (
{
closed = 1;
nodes = (
"250 0 LINE",
"250 512 LINE",
"302 512 LINE SMOOTH",
"331 512 OFFCURVE",
"351 492 OFFCURVE",
"351 462 CURVE SMOOTH",
"351 432 OFFCURVE",
"331 412 OFFCURVE",
"302 412 CURVE SMOOTH",
"234 412 LINE",
"234 259 LINE",
"394 259 LINE SMOOTH",
"503 259 OFFCURVE",
"575 343 OFFCURVE",
"575 469 CURVE SMOOTH",
"575 608 OFFCURVE",
"491 700 OFFCURVE",
"364 700 CURVE SMOOTH",
"48 700 LINE",
"48 0 LINE"
);
},
{
closed = 1;
nodes = (
"590 0 LINE",
"417 320 LINE",
"201 320 LINE",
"352 0 LINE"
);
}
);
width = 583;
},
{
layerId = "6256A6A1-72B9-4ADD-8383-8893F8BF5D61";
paths = (
{
closed = 1;
nodes = (
"199 0 LINE",
"199 590 LINE",
"286 590 LINE SMOOTH",
"347 590 OFFCURVE",
"387 548 OFFCURVE",
"387 485 CURVE SMOOTH",
"387 422 OFFCURVE",
"347 381 OFFCURVE",
"286 381 CURVE SMOOTH",
"187 381 LINE",
"187 278 LINE",
"325 278 LINE SMOOTH",
"434 278 OFFCURVE",
"506 362 OFFCURVE",
"506 486 CURVE SMOOTH",
"506 616 OFFCURVE",
"428 700 OFFCURVE",
"309 700 CURVE SMOOTH",
"80 700 LINE",
"80 0 LINE"
);
},
{
closed = 1;
nodes = (
"501 0 LINE",
"360 329 LINE",
"235 325 LINE",
"361 0 LINE"
);
}
);
width = 541;
}
);
unicode = 0052;
},
{
color = 1;
glyphname = S;
lastChange = "2016-10-17 10:26:32 +0000";
layers = (
{
layerId = "262880E7-CFE1-4BDA-902E-E24798F3240A";
paths = (
{
closed = 1;
nodes = (
"404 -9 OFFCURVE",
"466 50 OFFCURVE",
"466 149 CURVE SMOOTH",
"466 255 OFFCURVE",
"394 306 OFFCURVE",
"311 361 CURVE SMOOTH",
"228 416 OFFCURVE",
"166 459 OFFCURVE",
"166 552 CURVE SMOOTH",
"166 636 OFFCURVE",
"218 690 OFFCURVE",
"302 690 CURVE SMOOTH",
"386 690 OFFCURVE",
"438 637 OFFCURVE",
"438 550 CURVE SMOOTH",
"438 500 LINE",
"460 500 LINE",
"460 550 LINE SMOOTH",
"460 650 OFFCURVE",
"400 709 OFFCURVE",
"302 709 CURVE SMOOTH",
"204 709 OFFCURVE",
"144 649 OFFCURVE",
"144 553 CURVE SMOOTH",
"144 446 OFFCURVE",
"219 394 OFFCURVE",
"297 342 CURVE SMOOTH",
"374 291 OFFCURVE",
"444 244 OFFCURVE",
"444 148 CURVE SMOOTH",
"444 63 OFFCURVE",
"390 11 OFFCURVE",
"303 11 CURVE SMOOTH",
"216 11 OFFCURVE",
"166 64 OFFCURVE",
"166 150 CURVE SMOOTH",
"166 210 LINE",
"146 210 LINE",
"146 150 LINE SMOOTH",
"146 50 OFFCURVE",
"203 -9 OFFCURVE",
"304 -9 CURVE SMOOTH"
);
}
);
width = 609;
},
{
layerId = "4F25946F-63AC-42D6-8D55-01CF6A99025B";
paths = (
{
closed = 1;
nodes = (
"419 -10 OFFCURVE",
"513 74 OFFCURVE",
"513 200 CURVE SMOOTH",
"513 312 OFFCURVE",
"439 381 OFFCURVE",
"326 425 CURVE SMOOTH",
"280 443 OFFCURVE",
"227 456 OFFCURVE",
"227 489 CURVE SMOOTH",
"227 503 OFFCURVE",
"237 518 OFFCURVE",
"261 518 CURVE SMOOTH",
"287 518 OFFCURVE",
"302 501 OFFCURVE",
"302 479 CURVE SMOOTH",
"302 464 LINE",
"514 474 LINE",
"514 479 LINE SMOOTH",
"514 617 OFFCURVE",
"407 710 OFFCURVE",
"255 710 CURVE SMOOTH",
"108 710 OFFCURVE",
"12 624 OFFCURVE",
"12 498 CURVE SMOOTH",
"12 389 OFFCURVE",
"85 318 OFFCURVE",
"199 275 CURVE SMOOTH",
"241 259 OFFCURVE",
"297 245 OFFCURVE",
"297 214 CURVE SMOOTH",
"297 201 OFFCURVE",
"288 182 OFFCURVE",
"262 182 CURVE SMOOTH",
"238 182 OFFCURVE",
"223 199 OFFCURVE",
"223 231 CURVE SMOOTH",
"223 236 LINE",
"0 226 LINE",
"0 221 LINE SMOOTH",
"0 83 OFFCURVE",
"106 -10 OFFCURVE",
"266 -10 CURVE SMOOTH"
);
}
);
width = 519;
},
{
layerId = "6256A6A1-72B9-4ADD-8383-8893F8BF5D61";
paths = (
{
closed = 1;
nodes = (
"382 -10 OFFCURVE",
"461 63 OFFCURVE",
"461 176 CURVE SMOOTH",
"461 286 OFFCURVE",
"388 346 OFFCURVE",
"289 396 CURVE SMOOTH",
"225 429 OFFCURVE",
"169 457 OFFCURVE",
"169 518 CURVE SMOOTH",
"169 565 OFFCURVE",
"198 598 OFFCURVE",
"250 598 CURVE SMOOTH",
"303 598 OFFCURVE",
"335 564 OFFCURVE",
"335 512 CURVE SMOOTH",
"335 481 LINE",
"459 486 LINE",
"459 512 LINE SMOOTH",
"459 632 OFFCURVE",
"374 710 OFFCURVE",
"247 710 CURVE SMOOTH",
"123 710 OFFCURVE",
"43 636 OFFCURVE",
"43 524 CURVE SMOOTH",
"43 415 OFFCURVE",
"117 353 OFFCURVE",
"215 304 CURVE SMOOTH",
"274 275 OFFCURVE",
"335 245 OFFCURVE",
"335 183 CURVE SMOOTH",
"335 137 OFFCURVE",
"306 103 OFFCURVE",
"251 103 CURVE SMOOTH",
"198 103 OFFCURVE",
"167 136 OFFCURVE",
"167 193 CURVE SMOOTH",
"167 224 LINE",
"38 219 LINE",
"38 188 LINE SMOOTH",
"38 68 OFFCURVE",
"121 -10 OFFCURVE",
"254 -10 CURVE SMOOTH"
);
}
);
width = 500;
}
);
unicode = 0053;
},
{
color = 1;
glyphname = T;
lastChange = "2016-10-17 10:26:30 +0000";
layers = (
{
layerId = "262880E7-CFE1-4BDA-902E-E24798F3240A";
paths = (
{
closed = 1;
nodes = (
"297 0 LINE",
"297 689 LINE",
"275 689 LINE",
"275 0 LINE"
);
},
{
closed = 1;
nodes = (
"451 679 LINE",
"451 700 LINE",
"129 700 LINE",
"129 679 LINE"
);
}
);
width = 580;
},
{
layerId = "4F25946F-63AC-42D6-8D55-01CF6A99025B";
paths = (
{
closed = 1;
nodes = (
"336 0 LINE",
"336 606 LINE",
"124 606 LINE",
"124 0 LINE"
);
},
{
closed = 1;
nodes = (
"484 500 LINE",
"484 700 LINE",
"-24 700 LINE",
"-24 500 LINE"
);
}
);
width = 460;
},
{
layerId = "6256A6A1-72B9-4ADD-8383-8893F8BF5D61";
paths = (
{
closed = 1;
nodes = (
"266 0 LINE",
"266 644 LINE",
"142 644 LINE",
"142 0 LINE"
);
},
{
closed = 1;
nodes = (
"417 583 LINE",
"417 700 LINE",
"-5 700 LINE",
"-5 583 LINE"
);
}
);
width = 412;
}
);
unicode = 0054;
},
{
color = 1;
glyphname = U;
lastChange = "2016-10-17 10:26:32 +0000";
layers = (
{
layerId = "262880E7-CFE1-4BDA-902E-E24798F3240A";
paths = (
{
closed = 1;
nodes = (
"423 -9 OFFCURVE",
"485 50 OFFCURVE",
"485 150 CURVE SMOOTH",
"485 700 LINE",
"463 700 LINE",
"463 150 LINE SMOOTH",
"463 64 OFFCURVE",
"411 11 OFFCURVE",
"324 11 CURVE SMOOTH",
"237 11 OFFCURVE",
"185 64 OFFCURVE",
"185 150 CURVE SMOOTH",
"185 700 LINE",
"163 700 LINE",
"163 150 LINE SMOOTH",
"163 50 OFFCURVE",
"225 -9 OFFCURVE",
"324 -9 CURVE SMOOTH"
);
}
);
width = 648;
},
{
layerId = "4F25946F-63AC-42D6-8D55-01CF6A99025B";
paths = (
{
closed = 1;
nodes = (
"444 -10 OFFCURVE",
"546 88 OFFCURVE",
"546 234 CURVE SMOOTH",
"546 700 LINE",
"334 700 LINE",
"334 234 LINE SMOOTH",
"334 200 OFFCURVE",
"316 178 OFFCURVE",
"290 178 CURVE SMOOTH",
"264 178 OFFCURVE",
"246 200 OFFCURVE",
"246 234 CURVE SMOOTH",
"246 700 LINE",
"34 700 LINE",
"34 234 LINE SMOOTH",
"34 88 OFFCURVE",
"136 -10 OFFCURVE",
"290 -10 CURVE SMOOTH"
);
}
);
width = 579;
},
{
layerId = "6256A6A1-72B9-4ADD-8383-8893F8BF5D61";
paths = (
{
closed = 1;
nodes = (
"411 -10 OFFCURVE",
"494 70 OFFCURVE",
"494 195 CURVE SMOOTH",
"494 700 LINE",
"371 700 LINE",
"371 195 LINE SMOOTH",
"371 137 OFFCURVE",
"337 101 OFFCURVE",
"282 101 CURVE SMOOTH",
"228 101 OFFCURVE",
"194 137 OFFCURVE",
"194 195 CURVE SMOOTH",
"194 700 LINE",
"71 700 LINE",
"71 195 LINE SMOOTH",
"71 70 OFFCURVE",
"154 -10 OFFCURVE",
"282 -10 CURVE SMOOTH"
);
}
);
width = 565;
}
);
unicode = 0055;
},
{
color = 1;
glyphname = V;
lastChange = "2016-10-17 10:26:30 +0000";
layers = (
{
layerId = "262880E7-CFE1-4BDA-902E-E24798F3240A";
paths = (
{
closed = 1;
nodes = (
"319 0 LINE",
"484 700 LINE",
"462 700 LINE",
"308 40 LINE",
"154 700 LINE",
"132 700 LINE",
"297 0 LINE"
);
}
);
width = 616;
},
{
layerId = "4F25946F-63AC-42D6-8D55-01CF6A99025B";
paths = (
{
closed = 1;
nodes = (
"357 0 LINE",
"527 700 LINE",
"312 700 LINE",
"251 300 LINE",
"190 700 LINE",
"-25 700 LINE",
"145 0 LINE"
);
}
);
width = 502;
},
{
layerId = "6256A6A1-72B9-4ADD-8383-8893F8BF5D61";
paths = (
{
closed = 1;
nodes = (
"299 0 LINE",
"466 700 LINE",
"341 700 LINE",
"236 186 LINE",
"133 700 LINE",
"7 700 LINE",
"174 0 LINE"
);
}
);
width = 473;
}
);
unicode = 0056;
},
{
color = 1;
glyphname = W;
lastChange = "2016-10-17 10:26:34 +0000";
layers = (
{
layerId = "262880E7-CFE1-4BDA-902E-E24798F3240A";
paths = (
{
closed = 1;
nodes = (
"280 0 LINE",
"394 648 LINE",
"508 0 LINE",
"530 0 LINE",
"655 700 LINE",
"633 700 LINE",
"519 52 LINE",
"405 700 LINE",
"383 700 LINE",
"269 52 LINE",
"155 700 LINE",
"133 700 LINE",
"258 0 LINE"
);
}
);
width = 788;
},
{
layerId = "4F25946F-63AC-42D6-8D55-01CF6A99025B";
paths = (
{
closed = 1;
nodes = (
"351 1 LINE",
"387 307 LINE",
"423 1 LINE",
"641 1 LINE",
"795 700 LINE",
"579 700 LINE",
"534 363 LINE",
"492 699 LINE",
"282 699 LINE",
"240 363 LINE",
"195 700 LINE",
"-21 700 LINE",
"133 1 LINE"
);
}
);
width = 774;
},
{
layerId = "6256A6A1-72B9-4ADD-8383-8893F8BF5D61";
paths = (
{
closed = 1;
nodes = (
"280 0 LINE",
"352 472 LINE",
"425 0 LINE",
"549 0 LINE",
"690 700 LINE",
"566 700 LINE",
"490 211 LINE",
"414 700 LINE",
"290 700 LINE",
"215 211 LINE",
"138 700 LINE",
"14 700 LINE",
"156 0 LINE"
);
}
);
width = 704;
}
);
unicode = 0057;
},
{
color = 1;
glyphname = X;
lastChange = "2016-10-17 10:26:33 +0000";
layers = (
{
layerId = "262880E7-CFE1-4BDA-902E-E24798F3240A";
paths = (
{
closed = 1;
nodes = (
"441 700 LINE",
"298 376 LINE",
"155 700 LINE",
"132 700 LINE",
"287 350 LINE",
"132 0 LINE",
"155 0 LINE",
"298 324 LINE",
"441 0 LINE",
"464 0 LINE",
"310 350 LINE",
"464 700 LINE"
);
}
);
width = 596;
},
{
layerId = "4F25946F-63AC-42D6-8D55-01CF6A99025B";
paths = (
{
closed = 1;
nodes = (
"344 700 LINE",
"277 559 LINE",
"210 700 LINE",
"-28 700 LINE",
"160 350 LINE",
"-28 0 LINE",
"210 0 LINE",
"277 141 LINE",
"344 0 LINE",
"582 0 LINE",
"394 350 LINE",
"582 700 LINE"
);
}
);
width = 554;
},
{
associatedMasterId = "4F25946F-63AC-42D6-8D55-01CF6A99025B";
layerId = "A81EC77E-A514-41C1-A690-EF61EA7402F1";
name = "Bold Oct 15 16, 02:50";
paths = (
{
closed = 1;
nodes = (
"4 700 LINE",
"242 700 LINE",
"582 0 LINE",
"344 0 LINE"
);
},
{
closed = 1;
nodes = (
"344 700 LINE",
"582 700 LINE",
"242 0 LINE",
"4 0 LINE"
);
}
);
width = 586;
},
{
associatedMasterId = "262880E7-CFE1-4BDA-902E-E24798F3240A";
layerId = "077702AC-624F-4016-8C7C-9CDBE6837B88";
name = "Light Oct 16 16, 21:49";
paths = (
{
closed = 1;
nodes = (
"441 700 LINE",
"298 376 LINE",
"155 700 LINE",
"132 700 LINE",
"287 350 LINE",
"132 0 LINE",
"155 0 LINE",
"298 324 LINE",
"441 0 LINE",
"464 0 LINE",
"310 350 LINE",
"464 700 LINE"
);
}
);
width = 596;
},
{
layerId = "6256A6A1-72B9-4ADD-8383-8893F8BF5D61";
paths = (
{
closed = 1;
nodes = (
"334 700 LINE",
"237 471 LINE",
"141 700 LINE",
"9 700 LINE",
"172 350 LINE",
"9 0 LINE",
"141 0 LINE",
"237 229 LINE",
"334 0 LINE",
"465 0 LINE",
"303 350 LINE",
"465 700 LINE"
);
}
);
width = 474;
}
);
unicode = 0058;
},
{
color = 1;
glyphname = Y;
lastChange = "2016-10-17 10:26:30 +0000";
layers = (
{
layerId = "262880E7-CFE1-4BDA-902E-E24798F3240A";
paths = (
{
closed = 1;
nodes = (
"464 700 LINE",
"439 700 LINE",
"297 379 LINE",
"156 700 LINE",
"130 700 LINE",
"297 328 LINE"
);
},
{
closed = 1;
nodes = (
"308 0 LINE",
"308 350 LINE",
"286 350 LINE",
"286 0 LINE"
);
}
);
width = 594;
},
{
layerId = "4F25946F-63AC-42D6-8D55-01CF6A99025B";
paths = (
{
closed = 1;
nodes = (
"595 700 LINE",
"369 700 LINE",
"282 479 LINE",
"194 700 LINE",
"-42 700 LINE",
"281 12 LINE"
);
},
{
closed = 1;
nodes = (
"389 0 LINE",
"389 350 LINE",
"173 350 LINE",
"173 0 LINE"
);
}
);
width = 554;
},
{
layerId = "6256A6A1-72B9-4ADD-8383-8893F8BF5D61";
paths = (
{
closed = 1;
nodes = (
"487 700 LINE",
"354 700 LINE",
"241 433 LINE",
"129 700 LINE",
"-10 700 LINE",
"241 159 LINE"
);
},
{
closed = 1;
nodes = (
"304 0 LINE",
"304 350 LINE",
"178 350 LINE",
"178 0 LINE"
);
}
);
width = 477;
}
);
unicode = 0059;
},
{
color = 1;
glyphname = Z;
lastChange = "2016-10-17 10:26:34 +0000";
layers = (
{
layerId = "262880E7-CFE1-4BDA-902E-E24798F3240A";
paths = (
{
closed = 1;
nodes = (
"447 0 LINE",
"447 22 LINE",
"163 22 LINE",
"463 700 LINE",
"147 700 LINE",
"147 679 LINE",
"431 679 LINE",
"131 0 LINE"
);
}
);
width = 594;
},
{
layerId = "4F25946F-63AC-42D6-8D55-01CF6A99025B";
paths = (
{
closed = 1;
nodes = (
"465 0 LINE",
"465 198 LINE",
"275 198 LINE",
"465 700 LINE",
"0 700 LINE",
"0 502 LINE",
"195 502 LINE",
"-3 0 LINE"
);
}
);
width = 464;
},
{
layerId = "6256A6A1-72B9-4ADD-8383-8893F8BF5D61";
paths = (
{
closed = 1;
nodes = (
"410 0 LINE",
"410 116 LINE",
"177 116 LINE",
"418 700 LINE",
"22 700 LINE",
"22 584 LINE",
"258 584 LINE",
"13 0 LINE"
);
}
);
width = 432;
}
);
unicode = 005A;
},
{
color = 1;
glyphname = a;
lastChange = "2016-10-17 10:26:34 +0000";
layers = (
{
layerId = "262880E7-CFE1-4BDA-902E-E24798F3240A";
paths = (
{
closed = 1;
nodes = (
"378 -7 OFFCURVE",
"437 56 OFFCURVE",
"437 156 CURVE SMOOTH",
"437 344 LINE SMOOTH",
"437 444 OFFCURVE",
"378 507 OFFCURVE",
"282 507 CURVE SMOOTH",
"185 507 OFFCURVE",
"122 446 OFFCURVE",
"122 346 CURVE SMOOTH",
"122 154 LINE SMOOTH",
"122 54 OFFCURVE",
"185 -7 OFFCURVE",
"282 -7 CURVE SMOOTH"
);
},
{
closed = 1;
nodes = (
"196 15 OFFCURVE",
"144 68 OFFCURVE",
"144 154 CURVE SMOOTH",
"144 346 LINE SMOOTH",
"144 432 OFFCURVE",
"198 486 OFFCURVE",
"283 486 CURVE SMOOTH",
"368 486 OFFCURVE",
"422 432 OFFCURVE",
"422 346 CURVE SMOOTH",
"422 154 LINE SMOOTH",
"422 68 OFFCURVE",
"370 15 OFFCURVE",
"283 15 CURVE SMOOTH"
);
},
{
closed = 1;
nodes = (
"444 0 LINE",
"444 500 LINE",
"422 500 LINE",
"422 0 LINE"
);
}
);
width = 578;
},
{
layerId = "4F25946F-63AC-42D6-8D55-01CF6A99025B";
paths = (
{
closed = 1;
nodes = (
"315 -5 OFFCURVE",
"395 88 OFFCURVE",
"395 240 CURVE SMOOTH",
"395 254 LINE SMOOTH",
"395 411 OFFCURVE",
"315 504 OFFCURVE",
"185 504 CURVE",
"80 504 OFFCURVE",
"16 415 OFFCURVE",
"16 318 CURVE SMOOTH",
"16 160 LINE SMOOTH",
"16 59 OFFCURVE",
"80 -3 OFFCURVE",
"185 -4 CURVE SMOOTH"
);
},
{
closed = 1;
nodes = (
"241 165 OFFCURVE",
"224 181 OFFCURVE",
"224 206 CURVE SMOOTH",
"224 298 LINE SMOOTH",
"224 323 OFFCURVE",
"241 339 OFFCURVE",
"267 339 CURVE SMOOTH",
"293 339 OFFCURVE",
"311 323 OFFCURVE",
"311 298 CURVE SMOOTH",
"311 206 LINE SMOOTH",
"311 181 OFFCURVE",
"293 165 OFFCURVE",
"267 165 CURVE SMOOTH"
);
},
{
closed = 1;
nodes = (
"518 0 LINE",
"518 500 LINE",
"311 500 LINE",
"311 0 LINE"
);
}
);
width = 556;
},
{
layerId = "6256A6A1-72B9-4ADD-8383-8893F8BF5D61";
paths = (
{
closed = 1;
nodes = (
"336 -6 OFFCURVE",
"407 78 OFFCURVE",
"407 204 CURVE SMOOTH",
"407 282 LINE SMOOTH",
"407 383 OFFCURVE",
"360 504 OFFCURVE",
"219 504 CURVE SMOOTH",
"121 504 OFFCURVE",
"45 446 OFFCURVE",
"45 349 CURVE SMOOTH",
"45 157 LINE SMOOTH",
"45 56 OFFCURVE",
"117 -4 OFFCURVE",
"232 -5 CURVE"
);
},
{
closed = 1;
nodes = (
"197 95 OFFCURVE",
"164 129 OFFCURVE",
"164 182 CURVE SMOOTH",
"164 319 LINE SMOOTH",
"164 372 OFFCURVE",
"197 406 OFFCURVE",
"251 406 CURVE SMOOTH",
"305 406 OFFCURVE",
"340 372 OFFCURVE",
"340 319 CURVE SMOOTH",
"340 182 LINE SMOOTH",
"340 129 OFFCURVE",
"305 95 OFFCURVE",
"251 95 CURVE SMOOTH"
);
},
{
closed = 1;
nodes = (
"461 0 LINE",
"461 500 LINE",
"340 500 LINE",
"340 0 LINE"
);
}
);
width = 525;
}
);
unicode = 0061;
},
{
color = 1;
glyphname = b;
lastChange = "2016-10-17 10:26:30 +0000";
layers = (
{
layerId = "262880E7-CFE1-4BDA-902E-E24798F3240A";
paths = (
{
closed = 1;
nodes = (
"156 0 LINE",
"156 700 LINE",
"134 700 LINE",
"134 0 LINE"
);
},
{
closed = 1;
nodes = (
"396 -7 OFFCURVE",
"456 54 OFFCURVE",
"456 154 CURVE SMOOTH",
"456 346 LINE SMOOTH",
"456 446 OFFCURVE",
"396 507 OFFCURVE",
"298 507 CURVE SMOOTH",
"200 507 OFFCURVE",
"136 444 OFFCURVE",
"136 344 CURVE SMOOTH",
"136 156 LINE SMOOTH",
"136 56 OFFCURVE",
"200 -7 OFFCURVE",
"298 -7 CURVE SMOOTH"
);
},
{
closed = 1;
nodes = (
"209 15 OFFCURVE",
"156 68 OFFCURVE",
"156 154 CURVE SMOOTH",
"156 346 LINE SMOOTH",
"156 433 OFFCURVE",
"209 486 OFFCURVE",
"295 486 CURVE SMOOTH",
"381 486 OFFCURVE",
"434 433 OFFCURVE",
"434 346 CURVE SMOOTH",
"434 154 LINE SMOOTH",
"434 68 OFFCURVE",
"381 15 OFFCURVE",
"295 15 CURVE SMOOTH"
);
}
);
width = 578;
},
{
layerId = "4F25946F-63AC-42D6-8D55-01CF6A99025B";
paths = (
{
closed = 1;
nodes = (
"245 0 LINE",
"245 700 LINE",
"38 700 LINE",
"38 0 LINE"
);
},
{
closed = 1;
nodes = (
"476 -3 OFFCURVE",
"540 59 OFFCURVE",
"540 160 CURVE SMOOTH",
"540 318 LINE SMOOTH",
"540 415 OFFCURVE",
"476 504 OFFCURVE",
"371 504 CURVE",
"241 504 OFFCURVE",
"161 411 OFFCURVE",
"161 254 CURVE SMOOTH",
"161 240 LINE SMOOTH",
"161 88 OFFCURVE",
"241 -5 OFFCURVE",
"371 -4 CURVE SMOOTH"
);
},
{
closed = 1;
nodes = (
"263 165 OFFCURVE",
"245 181 OFFCURVE",
"245 206 CURVE SMOOTH",
"245 298 LINE SMOOTH",
"245 323 OFFCURVE",
"263 339 OFFCURVE",
"289 339 CURVE SMOOTH",
"315 339 OFFCURVE",
"332 323 OFFCURVE",
"332 298 CURVE SMOOTH",
"332 206 LINE SMOOTH",
"332 181 OFFCURVE",
"315 165 OFFCURVE",
"289 165 CURVE SMOOTH"
);
}
);
width = 555;
},
{
layerId = "6256A6A1-72B9-4ADD-8383-8893F8BF5D61";
paths = (
{
closed = 1;
nodes = (
"184 -1 LINE",
"184 700 LINE",
"64 700 LINE",
"64 -1 LINE"
);
},
{
closed = 1;
nodes = (
"407 -4 OFFCURVE",
"479 56 OFFCURVE",
"479 157 CURVE SMOOTH",
"479 349 LINE SMOOTH",
"479 446 OFFCURVE",
"403 504 OFFCURVE",
"305 504 CURVE SMOOTH",
"164 504 OFFCURVE",
"117 383 OFFCURVE",
"117 282 CURVE SMOOTH",
"117 204 LINE SMOOTH",
"117 78 OFFCURVE",
"188 -6 OFFCURVE",
"292 -5 CURVE"
);
},
{
closed = 1;
nodes = (
"219 95 OFFCURVE",
"184 129 OFFCURVE",
"184 182 CURVE SMOOTH",
"184 319 LINE SMOOTH",
"184 372 OFFCURVE",
"219 406 OFFCURVE",
"273 406 CURVE SMOOTH",
"327 406 OFFCURVE",
"360 372 OFFCURVE",
"360 319 CURVE SMOOTH",
"360 182 LINE SMOOTH",
"360 129 OFFCURVE",
"327 95 OFFCURVE",
"273 95 CURVE SMOOTH"
);
}
);
width = 524;
}
);
unicode = 0062;
},
{
color = 1;
glyphname = c;
lastChange = "2016-10-17 10:26:33 +0000";
layers = (
{
layerId = "262880E7-CFE1-4BDA-902E-E24798F3240A";
paths = (
{
closed = 1;
nodes = (
"382 -5 OFFCURVE",
"444 54 OFFCURVE",
"444 154 CURVE SMOOTH",
"444 157 LINE",
"422 157 LINE",
"422 154 LINE SMOOTH",
"422 68 OFFCURVE",
"370 15 OFFCURVE",
"283 15 CURVE SMOOTH",
"196 15 OFFCURVE",
"144 68 OFFCURVE",
"144 154 CURVE SMOOTH",
"144 346 LINE SMOOTH",
"144 433 OFFCURVE",
"198 486 OFFCURVE",
"283 486 CURVE SMOOTH",
"368 486 OFFCURVE",
"422 433 OFFCURVE",
"422 346 CURVE SMOOTH",
"422 344 LINE",
"444 344 LINE",
"444 346 LINE SMOOTH",
"444 446 OFFCURVE",
"382 505 OFFCURVE",
"283 505 CURVE SMOOTH",
"184 505 OFFCURVE",
"122 446 OFFCURVE",
"122 346 CURVE SMOOTH",
"122 154 LINE SMOOTH",
"122 54 OFFCURVE",
"184 -5 OFFCURVE",
"283 -5 CURVE SMOOTH"
);
}
);
width = 553;
},
{
layerId = "4F25946F-63AC-42D6-8D55-01CF6A99025B";
paths = (
{
closed = 1;
nodes = (
"404 -3 OFFCURVE",
"499 81 OFFCURVE",
"509 232 CURVE",
"509 234 LINE",
"298 234 LINE",
"298 207 LINE SMOOTH",
"298 182 OFFCURVE",
"280 166 OFFCURVE",
"254 166 CURVE SMOOTH",
"228 166 OFFCURVE",
"211 182 OFFCURVE",
"211 207 CURVE",
"211 297 LINE",
"211 322 OFFCURVE",
"228 338 OFFCURVE",
"254 338 CURVE SMOOTH",
"280 338 OFFCURVE",
"298 322 OFFCURVE",
"298 297 CURVE",
"298 276 LINE",
"509 276 LINE",
"509 278 LINE",
"507 422 OFFCURVE",
"412 503 OFFCURVE",
"253 503 CURVE SMOOTH",
"93 503 OFFCURVE",
"-1 414 OFFCURVE",
"-1 255 CURVE SMOOTH",
"-1 248 LINE SMOOTH",
"-1 87 OFFCURVE",
"93 -3 OFFCURVE",
"252 -3 CURVE SMOOTH"
);
}
);
width = 507;
},
{
layerId = "6256A6A1-72B9-4ADD-8383-8893F8BF5D61";
paths = (
{
closed = 1;
nodes = (
"385 -9 OFFCURVE",
"462 60 OFFCURVE",
"462 195 CURVE SMOOTH",
"462 198 LINE",
"339 198 LINE",
"339 198 LINE SMOOTH",
"339 146 OFFCURVE",
"304 105 OFFCURVE",
"251 105 CURVE SMOOTH",
"198 105 OFFCURVE",
"163 146 OFFCURVE",
"163 198 CURVE SMOOTH",
"163 310 LINE SMOOTH",
"163 362 OFFCURVE",
"198 400 OFFCURVE",
"251 400 CURVE SMOOTH",
"304 400 OFFCURVE",
"339 362 OFFCURVE",
"339 310 CURVE SMOOTH",
"339 308 LINE",
"462 308 LINE",
"462 310 LINE SMOOTH",
"462 441 OFFCURVE",
"389 509 OFFCURVE",
"250 509 CURVE SMOOTH",
"111 509 OFFCURVE",
"40 437 OFFCURVE",
"40 298 CURVE SMOOTH",
"40 204 LINE SMOOTH",
"40 63 OFFCURVE",
"111 -9 OFFCURVE",
"250 -9 CURVE SMOOTH"
);
}
);
width = 492;
}
);
unicode = 0063;
},
{
color = 1;
glyphname = e;
lastChange = "2016-10-17 10:26:33 +0000";
layers = (
{
layerId = "262880E7-CFE1-4BDA-902E-E24798F3240A";
paths = (
{
closed = 1;
nodes = (
"382 -5 OFFCURVE",
"444 54 OFFCURVE",
"444 154 CURVE SMOOTH",
"444 158 LINE",
"422 158 LINE",
"422 154 LINE SMOOTH",
"422 68 OFFCURVE",
"370 15 OFFCURVE",
"283 15 CURVE SMOOTH",
"196 15 OFFCURVE",
"144 68 OFFCURVE",
"144 154 CURVE SMOOTH",
"144 346 LINE SMOOTH",
"144 433 OFFCURVE",
"198 486 OFFCURVE",
"283 486 CURVE SMOOTH",
"368 486 OFFCURVE",
"422 433 OFFCURVE",
"422 346 CURVE SMOOTH",
"422 261 LINE",
"139 261 LINE",
"139 240 LINE",
"444 240 LINE",
"444 346 LINE SMOOTH",
"444 446 OFFCURVE",
"382 505 OFFCURVE",
"283 505 CURVE SMOOTH",
"184 505 OFFCURVE",
"122 446 OFFCURVE",
"122 346 CURVE SMOOTH",
"122 154 LINE SMOOTH",
"122 54 OFFCURVE",
"184 -5 OFFCURVE",
"283 -5 CURVE SMOOTH"
);
}
);
width = 561;
},
{
layerId = "4F25946F-63AC-42D6-8D55-01CF6A99025B";
paths = (
{
closed = 1;
nodes = (
"404 -4 OFFCURVE",
"499 66 OFFCURVE",
"508 193 CURVE",
"508 193 LINE",
"308 193 LINE",
"308 193 LINE",
"304 164 OFFCURVE",
"280 152 OFFCURVE",
"254 152 CURVE SMOOTH",
"228 152 OFFCURVE",
"211 168 OFFCURVE",
"211 193 CURVE SMOOTH",
"211 318 LINE SMOOTH",
"211 344 OFFCURVE",
"228 359 OFFCURVE",
"254 359 CURVE SMOOTH",
"280 359 OFFCURVE",
"297 344 OFFCURVE",
"297 318 CURVE SMOOTH",
"297 299 LINE",
"194 299 LINE",
"194 231 LINE",
"508 231 LINE",
"508 262 LINE",
"506 417 OFFCURVE",
"412 504 OFFCURVE",
"253 504 CURVE SMOOTH",
"93 504 OFFCURVE",
"-1 415 OFFCURVE",
"-1 256 CURVE SMOOTH",
"-1 247 LINE SMOOTH",
"-1 86 OFFCURVE",
"93 -4 OFFCURVE",
"252 -4 CURVE SMOOTH"
);
}
);
width = 509;
},
{
layerId = "6256A6A1-72B9-4ADD-8383-8893F8BF5D61";
paths = (
{
closed = 1;
nodes = (
"374 -7 OFFCURVE",
"458 56 OFFCURVE",
"458 160 CURVE SMOOTH",
"458 161 LINE",
"335 162 LINE",
"335 158 LINE SMOOTH",
"335 123 OFFCURVE",
"298 101 OFFCURVE",
"247 101 CURVE SMOOTH",
"193 101 OFFCURVE",
"160 134 OFFCURVE",
"160 188 CURVE SMOOTH",
"160 319 LINE SMOOTH",
"160 373 OFFCURVE",
"193 406 OFFCURVE",
"247 406 CURVE SMOOTH",
"302 406 OFFCURVE",
"335 373 OFFCURVE",
"335 319 CURVE SMOOTH",
"335 290 LINE",
"148 290 LINE",
"148 211 LINE",
"458 211 LINE",
"458 301 LINE SMOOTH",
"458 429 OFFCURVE",
"378 507 OFFCURVE",
"247 507 CURVE SMOOTH",
"116 507 OFFCURVE",
"36 428 OFFCURVE",
"36 298 CURVE SMOOTH",
"36 204 LINE SMOOTH",
"36 73 OFFCURVE",
"116 -7 OFFCURVE",
"246 -7 CURVE SMOOTH"
);
}
);
width = 495;
}
);
unicode = 0065;
},
{
color = 1;
glyphname = f;
lastChange = "2016-10-17 10:26:34 +0000";
layers = (
{
layerId = "262880E7-CFE1-4BDA-902E-E24798F3240A";
paths = (
{
closed = 1;
nodes = (
"188 -1 LINE",
"188 550 LINE SMOOTH",
"188 637 OFFCURVE",
"241 690 OFFCURVE",
"327 690 CURVE",
"327 711 LINE",
"227 711 OFFCURVE",
"166 650 OFFCURVE",
"166 550 CURVE SMOOTH",
"166 -1 LINE"
);
},
{
closed = 1;
nodes = (
"297 479 LINE",
"297 500 LINE",
"97 500 LINE",
"97 479 LINE"
);
}
);
width = 394;
},
{
layerId = "4F25946F-63AC-42D6-8D55-01CF6A99025B";
paths = (
{
closed = 1;
nodes = (
"242 8 LINE",
"242 525 LINE",
"242 545 OFFCURVE",
"264 551 OFFCURVE",
"286 551 CURVE",
"286 693 LINE",
"146 700 OFFCURVE",
"57 690 OFFCURVE",
"57 549 CURVE",
"57 8 LINE"
);
},
{
closed = 1;
nodes = (
"304 326 LINE",
"304 500 LINE",
"11 500 LINE",
"11 326 LINE"
);
}
);
width = 306;
},
{
layerId = "6256A6A1-72B9-4ADD-8383-8893F8BF5D61";
paths = (
{
closed = 1;
nodes = (
"189 4 LINE",
"189 544 LINE SMOOTH",
"189 598 OFFCURVE",
"229 610 OFFCURVE",
"275 610 CURVE",
"276 698 LINE",
"155 702 OFFCURVE",
"79 671 OFFCURVE",
"79 550 CURVE SMOOTH",
"79 4 LINE"
);
},
{
closed = 1;
nodes = (
"273 397 LINE",
"273 500 LINE",
"22 500 LINE",
"22 397 LINE"
);
}
);
width = 276;
}
);
unicode = 0066;
},
{
color = 1;
glyphname = g;
lastChange = "2016-10-17 10:26:30 +0000";
layers = (
{
layerId = "262880E7-CFE1-4BDA-902E-E24798F3240A";
paths = (
{
closed = 1;
nodes = (
"378 -5 OFFCURVE",
"437 56 OFFCURVE",
"437 156 CURVE SMOOTH",
"437 344 LINE SMOOTH",
"437 444 OFFCURVE",
"378 505 OFFCURVE",
"280 505 CURVE SMOOTH",
"182 505 OFFCURVE",
"122 445 OFFCURVE",
"122 346 CURVE SMOOTH",
"122 154 LINE SMOOTH",
"122 55 OFFCURVE",
"182 -5 OFFCURVE",
"281 -5 CURVE"
);
},
{
closed = 1;
nodes = (
"197 17 OFFCURVE",
"144 70 OFFCURVE",
"144 156 CURVE SMOOTH",
"144 344 LINE SMOOTH",
"144 431 OFFCURVE",
"197 484 OFFCURVE",
"283 484 CURVE SMOOTH",
"369 484 OFFCURVE",
"422 431 OFFCURVE",
"422 344 CURVE SMOOTH",
"422 156 LINE SMOOTH",
"422 70 OFFCURVE",
"369 17 OFFCURVE",
"283 17 CURVE SMOOTH"
);
},
{
closed = 1;
nodes = (
"371 -206 OFFCURVE",
"444 -140 OFFCURVE",
"444 0 CURVE SMOOTH",
"444 500 LINE",
"422 500 LINE",
"422 0 LINE SMOOTH",
"422 -126 OFFCURVE",
"356 -185 OFFCURVE",
"237 -181 CURVE",
"237 -202 LINE"
);
}
);
width = 578;
},
{
layerId = "4F25946F-63AC-42D6-8D55-01CF6A99025B";
paths = (
{
closed = 1;
nodes = (
"318 -5 OFFCURVE",
"398 88 OFFCURVE",
"398 240 CURVE SMOOTH",
"398 254 LINE SMOOTH",
"398 411 OFFCURVE",
"318 504 OFFCURVE",
"188 504 CURVE",
"83 504 OFFCURVE",
"19 447 OFFCURVE",
"19 350 CURVE SMOOTH",
"19 160 LINE SMOOTH",
"19 59 OFFCURVE",
"83 -3 OFFCURVE",
"188 -4 CURVE SMOOTH"
);
},
{
closed = 1;
nodes = (
"238 165 OFFCURVE",
"221 181 OFFCURVE",
"221 206 CURVE SMOOTH",
"221 298 LINE SMOOTH",
"221 323 OFFCURVE",
"238 339 OFFCURVE",
"264 339 CURVE SMOOTH",
"290 339 OFFCURVE",
"308 323 OFFCURVE",
"308 298 CURVE SMOOTH",
"308 206 LINE SMOOTH",
"308 181 OFFCURVE",
"290 165 OFFCURVE",
"264 165 CURVE SMOOTH"
);
},
{
closed = 1;
nodes = (
"453 -226 OFFCURVE",
"520 -115 OFFCURVE",
"520 34 CURVE SMOOTH",
"520 500 LINE",
"308 500 LINE",
"308 34 LINE SMOOTH",
"308 -14 OFFCURVE",
"291 -44 OFFCURVE",
"147 -36 CURVE",
"147 -207 LINE"
);
}
);
width = 558;
},
{
layerId = "6256A6A1-72B9-4ADD-8383-8893F8BF5D61";
paths = (
{
closed = 1;
nodes = (
"336 -6 OFFCURVE",
"407 78 OFFCURVE",
"407 204 CURVE SMOOTH",
"407 282 LINE SMOOTH",
"407 383 OFFCURVE",
"360 504 OFFCURVE",
"219 504 CURVE SMOOTH",
"121 504 OFFCURVE",
"45 446 OFFCURVE",
"45 349 CURVE SMOOTH",
"45 157 LINE SMOOTH",
"45 56 OFFCURVE",
"117 -4 OFFCURVE",
"232 -5 CURVE"
);
},
{
closed = 1;
nodes = (
"197 95 OFFCURVE",
"164 129 OFFCURVE",
"164 182 CURVE SMOOTH",
"164 319 LINE SMOOTH",
"164 372 OFFCURVE",
"197 406 OFFCURVE",
"251 406 CURVE SMOOTH",
"305 406 OFFCURVE",
"340 372 OFFCURVE",
"340 319 CURVE SMOOTH",
"340 182 LINE SMOOTH",
"340 129 OFFCURVE",
"305 95 OFFCURVE",
"251 95 CURVE SMOOTH"
);
},
{
closed = 1;
nodes = (
"399 -219 OFFCURVE",
"464 -131 OFFCURVE",
"464 -5 CURVE SMOOTH",
"464 500 LINE",
"340 500 LINE",
"340 -5 LINE SMOOTH",
"340 -71 OFFCURVE",
"306 -112 OFFCURVE",
"180 -107 CURVE",
"180 -208 LINE"
);
}
);
width = 528;
}
);
unicode = 0067;
},
{
color = 1;
glyphname = h;
lastChange = "2016-10-17 10:26:31 +0000";
layers = (
{
layerId = "262880E7-CFE1-4BDA-902E-E24798F3240A";
paths = (
{
closed = 1;
nodes = (
"456 0 LINE",
"456 346 LINE SMOOTH",
"456 446 OFFCURVE",
"394 505 OFFCURVE",
"297 505 CURVE SMOOTH",
"199 505 OFFCURVE",
"140 444 OFFCURVE",
"140 344 CURVE",
"156 344 LINE",
"156 431 OFFCURVE",
"210 484 OFFCURVE",
"295 484 CURVE SMOOTH",
"380 484 OFFCURVE",
"434 431 OFFCURVE",
"434 344 CURVE SMOOTH",
"434 0 LINE"
);
},
{
closed = 1;
nodes = (
"156 0 LINE",
"156 700 LINE",
"134 700 LINE",
"134 0 LINE"
);
}
);
width = 584;
},
{
layerId = "4F25946F-63AC-42D6-8D55-01CF6A99025B";
paths = (
{
closed = 1;
nodes = (
"540 0 LINE",
"540 350 LINE SMOOTH",
"540 441 OFFCURVE",
"489 510 OFFCURVE",
"373 510 CURVE SMOOTH",
"224 510 OFFCURVE",
"181 396 OFFCURVE",
"181 294 CURVE",
"246 294 LINE",
"246 321 OFFCURVE",
"263 339 OFFCURVE",
"289 339 CURVE SMOOTH",
"315 339 OFFCURVE",
"333 321 OFFCURVE",
"333 294 CURVE SMOOTH",
"333 0 LINE"
);
},
{
closed = 1;
nodes = (
"246 0 LINE",
"246 700 LINE",
"38 700 LINE",
"38 0 LINE"
);
}
);
width = 570;
},
{
layerId = "6256A6A1-72B9-4ADD-8383-8893F8BF5D61";
paths = (
{
closed = 1;
nodes = (
"483 0 LINE",
"483 349 LINE SMOOTH",
"483 443 OFFCURVE",
"425 508 OFFCURVE",
"315 508 CURVE SMOOTH",
"193 508 OFFCURVE",
"136 427 OFFCURVE",
"136 318 CURVE",
"186 318 LINE",
"186 373 OFFCURVE",
"220 407 OFFCURVE",
"273 407 CURVE SMOOTH",
"326 407 OFFCURVE",
"361 373 OFFCURVE",
"361 318 CURVE SMOOTH",
"361 0 LINE"
);
},
{
closed = 1;
nodes = (
"186 0 LINE",
"186 700 LINE",
"64 700 LINE",
"64 0 LINE"
);
}
);
width = 539;
}
);
unicode = 0068;
},
{
color = 1;
glyphname = i;
lastChange = "2016-10-17 10:26:33 +0000";
layers = (
{
layerId = "262880E7-CFE1-4BDA-902E-E24798F3240A";
paths = (
{
closed = 1;
nodes = (
"156 -1 LINE",
"156 500 LINE",
"134 500 LINE",
"134 -1 LINE"
);
},
{
closed = 1;
nodes = (
"162 669 OFFCURVE",
"176 683 OFFCURVE",
"176 700 CURVE SMOOTH",
"176 716 OFFCURVE",
"162 730 OFFCURVE",
"145 730 CURVE SMOOTH",
"128 730 OFFCURVE",
"114 716 OFFCURVE",
"114 700 CURVE SMOOTH",
"114 683 OFFCURVE",
"128 669 OFFCURVE",
"145 669 CURVE SMOOTH"
);
}
);
width = 290;
},
{
layerId = "4F25946F-63AC-42D6-8D55-01CF6A99025B";
paths = (
{
closed = 1;
nodes = (
"246 0 LINE",
"246 500 LINE",
"38 500 LINE",
"38 0 LINE"
);
},
{
closed = 1;
nodes = (
"203 547 OFFCURVE",
"256 591 OFFCURVE",
"256 656 CURVE",
"256 715 OFFCURVE",
"203 763 OFFCURVE",
"142 763 CURVE SMOOTH",
"81 763 OFFCURVE",
"28 715 OFFCURVE",
"28 656 CURVE SMOOTH",
"28 595 OFFCURVE",
"79 547 OFFCURVE",
"142 547 CURVE SMOOTH"
);
}
);
width = 284;
},
{
layerId = "6256A6A1-72B9-4ADD-8383-8893F8BF5D61";
paths = (
{
closed = 1;
nodes = (
"186 0 LINE",
"186 500 LINE",
"64 500 LINE",
"64 0 LINE"
);
},
{
closed = 1;
nodes = (
"165 604 OFFCURVE",
"200 634 OFFCURVE",
"200 676 CURVE SMOOTH",
"200 715 OFFCURVE",
"165 748 OFFCURVE",
"125 748 CURVE SMOOTH",
"84 748 OFFCURVE",
"49 715 OFFCURVE",
"49 676 CURVE SMOOTH",
"49 636 OFFCURVE",
"83 604 OFFCURVE",
"125 604 CURVE SMOOTH"
);
}
);
width = 250;
}
);
unicode = 0069;
},
{
color = 1;
glyphname = j;
lastChange = "2016-10-17 10:26:32 +0000";
layers = (
{
layerId = "262880E7-CFE1-4BDA-902E-E24798F3240A";
paths = (
{
closed = 1;
nodes = (
"104 -211 OFFCURVE",
"156 -159 OFFCURVE",
"156 -74 CURVE SMOOTH",
"156 500 LINE",
"134 500 LINE",
"134 -74 LINE SMOOTH",
"134 -146 OFFCURVE",
"91 -190 OFFCURVE",
"20 -190 CURVE",
"20 -211 LINE"
);
},
{
closed = 1;
nodes = (
"164 669 OFFCURVE",
"176 681 OFFCURVE",
"176 700 CURVE SMOOTH",
"176 719 OFFCURVE",
"164 730 OFFCURVE",
"145 730 CURVE SMOOTH",
"126 730 OFFCURVE",
"114 719 OFFCURVE",
"114 700 CURVE SMOOTH",
"114 681 OFFCURVE",
"126 669 OFFCURVE",
"145 669 CURVE SMOOTH"
);
}
);
width = 290;
},
{
layerId = "4F25946F-63AC-42D6-8D55-01CF6A99025B";
paths = (
{
closed = 1;
nodes = (
"134 -236 OFFCURVE",
"247 -200 OFFCURVE",
"246 -39 CURVE",
"246 500 LINE",
"38 500 LINE",
"38 -8 LINE",
"38 -40 OFFCURVE",
"-16 -39 OFFCURVE",
"-49 -26 CURVE",
"-59 -201 LINE"
);
},
{
closed = 1;
nodes = (
"204 547 OFFCURVE",
"256 595 OFFCURVE",
"256 656 CURVE",
"256 715 OFFCURVE",
"204 763 OFFCURVE",
"142 763 CURVE SMOOTH",
"81 763 OFFCURVE",
"28 715 OFFCURVE",
"28 656 CURVE SMOOTH",
"28 595 OFFCURVE",
"79 547 OFFCURVE",
"142 547 CURVE SMOOTH"
);
}
);
width = 284;
},
{
layerId = "6256A6A1-72B9-4ADD-8383-8893F8BF5D61";
paths = (
{
closed = 1;
nodes = (
"102 -224 OFFCURVE",
"186 -181 OFFCURVE",
"186 -55 CURVE SMOOTH",
"186 500 LINE",
"64 500 LINE",
"64 -39 LINE SMOOTH",
"64 -89 OFFCURVE",
"15 -109 OFFCURVE",
"-36 -102 CURVE",
"-41 -206 LINE"
);
},
{
closed = 1;
nodes = (
"167 604 OFFCURVE",
"200 635 OFFCURVE",
"200 676 CURVE SMOOTH",
"200 717 OFFCURVE",
"167 748 OFFCURVE",
"125 748 CURVE SMOOTH",
"83 748 OFFCURVE",
"49 717 OFFCURVE",
"49 676 CURVE SMOOTH",
"49 635 OFFCURVE",
"82 604 OFFCURVE",
"125 604 CURVE SMOOTH"
);
}
);
width = 250;
}
);
unicode = 006A;
},
{
color = 1;
glyphname = k;
lastChange = "2016-10-17 10:26:34 +0000";
layers = (
{
layerId = "262880E7-CFE1-4BDA-902E-E24798F3240A";
paths = (
{
closed = 1;
nodes = (
"413 0 LINE",
"167 250 LINE",
"415 500 LINE",
"384 500 LINE",
"135 250 LINE",
"382 0 LINE"
);
},
{
closed = 1;
nodes = (
"155 1 LINE",
"156 700 LINE",
"134 700 LINE",
"133 1 LINE"
);
}
);
width = 512;
},
{
layerId = "4F25946F-63AC-42D6-8D55-01CF6A99025B";
paths = (
{
closed = 1;
nodes = (
"548 0 LINE",
"366 250 LINE",
"558 500 LINE",
"326 500 LINE",
"182 256 LINE",
"312 0 LINE"
);
},
{
closed = 1;
nodes = (
"226 0 LINE",
"227 700 LINE",
"39 700 LINE",
"38 0 LINE"
);
}
);
width = 519;
},
{
layerId = "6256A6A1-72B9-4ADD-8383-8893F8BF5D61";
paths = (
{
closed = 1;
nodes = (
"480 0 LINE",
"278 250 LINE",
"495 500 LINE",
"345 500 LINE",
"137 250 LINE",
"329 0 LINE"
);
},
{
closed = 1;
nodes = (
"185 0 LINE",
"186 700 LINE",
"65 700 LINE",
"64 0 LINE"
);
}
);
width = 476;
}
);
unicode = 006B;
},
{
color = 1;
glyphname = l;
lastChange = "2016-10-17 10:26:31 +0000";
layers = (
{
layerId = "262880E7-CFE1-4BDA-902E-E24798F3240A";
paths = (
{
closed = 1;
nodes = (
"156 -1 LINE",
"156 700 LINE",
"134 700 LINE",
"134 -1 LINE"
);
}
);
width = 290;
},
{
layerId = "4F25946F-63AC-42D6-8D55-01CF6A99025B";
paths = (
{
closed = 1;
nodes = (
"246 0 LINE",
"246 700 LINE",
"38 700 LINE",
"38 0 LINE"
);
}
);
width = 284;
},
{
layerId = "6256A6A1-72B9-4ADD-8383-8893F8BF5D61";
paths = (
{
closed = 1;
nodes = (
"186 0 LINE",
"186 700 LINE",
"64 700 LINE",
"64 0 LINE"
);
}
);
width = 250;
}
);
unicode = 006C;
},
{
color = 1;
glyphname = m;
lastChange = "2016-10-17 10:26:33 +0000";
layers = (
{
layerId = "262880E7-CFE1-4BDA-902E-E24798F3240A";
paths = (
{
closed = 1;
nodes = (
"156 0 LINE",
"156 500 LINE",
"134 500 LINE",
"134 0 LINE"
);
},
{
closed = 1;
nodes = (
"446 0 LINE",
"446 345 LINE",
"446 441 OFFCURVE",
"385 506 OFFCURVE",
"291 506 CURVE SMOOTH",
"196 506 OFFCURVE",
"141 445 OFFCURVE",
"141 345 CURVE",
"156 345 LINE",
"156 432 OFFCURVE",
"207 485 OFFCURVE",
"290 485 CURVE SMOOTH",
"373 485 OFFCURVE",
"424 432 OFFCURVE",
"424 345 CURVE",
"424 0 LINE"
);
},
{
closed = 1;
nodes = (
"736 0 LINE",
"736 345 LINE SMOOTH",
"736 445 OFFCURVE",
"675 506 OFFCURVE",
"581 506 CURVE SMOOTH",
"483 506 OFFCURVE",
"429 446 OFFCURVE",
"429 345 CURVE",
"446 345 LINE",
"446 432 OFFCURVE",
"497 485 OFFCURVE",
"580 485 CURVE SMOOTH",
"663 485 OFFCURVE",
"714 432 OFFCURVE",
"714 345 CURVE SMOOTH",
"714 0 LINE"
);
}
);
width = 864;
},
{
layerId = "4F25946F-63AC-42D6-8D55-01CF6A99025B";
paths = (
{
closed = 1;
nodes = (
"246 0 LINE",
"246 500 LINE",
"38 500 LINE",
"38 0 LINE"
);
},
{
closed = 1;
nodes = (
"540 0 LINE",
"540 350 LINE SMOOTH",
"540 441 OFFCURVE",
"495 502 OFFCURVE",
"378 502 CURVE",
"230 502 OFFCURVE",
"181 387 OFFCURVE",
"181 286 CURVE",
"246 294 LINE",
"246 321 OFFCURVE",
"263 339 OFFCURVE",
"289 339 CURVE SMOOTH",
"315 339 OFFCURVE",
"333 321 OFFCURVE",
"333 294 CURVE SMOOTH",
"333 0 LINE"
);
},
{
closed = 1;
nodes = (
"834 0 LINE",
"834 350 LINE SMOOTH",
"834 441 OFFCURVE",
"786 502 OFFCURVE",
"668 502 CURVE",
"524 502 OFFCURVE",
"475 387 OFFCURVE",
"475 286 CURVE",
"540 294 LINE",
"540 321 OFFCURVE",
"557 339 OFFCURVE",
"583 339 CURVE SMOOTH",
"609 339 OFFCURVE",
"627 321 OFFCURVE",
"627 294 CURVE SMOOTH",
"627 0 LINE"
);
}
);
width = 864;
},
{
layerId = "6256A6A1-72B9-4ADD-8383-8893F8BF5D61";
paths = (
{
closed = 1;
nodes = (
"185 0 LINE",
"185 500 LINE",
"64 500 LINE",
"64 0 LINE"
);
},
{
closed = 1;
nodes = (
"471 0 LINE",
"471 350 LINE SMOOTH",
"471 445 OFFCURVE",
"421 508 OFFCURVE",
"316 508 CURVE SMOOTH",
"195 508 OFFCURVE",
"140 427 OFFCURVE",
"140 323 CURVE",
"185 325 LINE",
"185 377 OFFCURVE",
"217 409 OFFCURVE",
"267 409 CURVE SMOOTH",
"318 409 OFFCURVE",
"350 377 OFFCURVE",
"350 325 CURVE SMOOTH",
"350 0 LINE"
);
},
{
closed = 1;
nodes = (
"758 0 LINE",
"758 350 LINE SMOOTH",
"758 445 OFFCURVE",
"707 508 OFFCURVE",
"602 508 CURVE SMOOTH",
"482 508 OFFCURVE",
"418 427 OFFCURVE",
"418 323 CURVE",
"471 325 LINE",
"471 377 OFFCURVE",
"503 409 OFFCURVE",
"554 409 CURVE SMOOTH",
"605 409 OFFCURVE",
"637 377 OFFCURVE",
"637 325 CURVE SMOOTH",
"637 0 LINE"
);
}
);
width = 815;
}
);
unicode = 006D;
},
{
color = 1;
glyphname = n;
lastChange = "2016-10-17 10:26:31 +0000";
layers = (
{
layerId = "262880E7-CFE1-4BDA-902E-E24798F3240A";
paths = (
{
closed = 1;
nodes = (
"456 0 LINE",
"456 344 LINE SMOOTH",
"456 444 OFFCURVE",
"395 504 OFFCURVE",
"296 504 CURVE SMOOTH",
"200 504 OFFCURVE",
"141 443 OFFCURVE",
"141 343 CURVE",
"156 343 LINE",
"156 430 OFFCURVE",
"209 483 OFFCURVE",
"295 483 CURVE SMOOTH",
"381 483 OFFCURVE",
"434 430 OFFCURVE",
"434 343 CURVE SMOOTH",
"434 0 LINE"
);
},
{
closed = 1;
nodes = (
"156 0 LINE",
"156 496 LINE",
"134 496 LINE",
"134 0 LINE"
);
}
);
width = 584;
},
{
layerId = "4F25946F-63AC-42D6-8D55-01CF6A99025B";
paths = (
{
closed = 1;
nodes = (
"540 0 LINE",
"540 350 LINE SMOOTH",
"540 441 OFFCURVE",
"495 502 OFFCURVE",
"378 502 CURVE",
"230 502 OFFCURVE",
"181 387 OFFCURVE",
"181 286 CURVE",
"246 294 LINE",
"246 321 OFFCURVE",
"263 339 OFFCURVE",
"289 339 CURVE SMOOTH",
"315 339 OFFCURVE",
"333 321 OFFCURVE",
"333 294 CURVE SMOOTH",
"333 0 LINE"
);
},
{
closed = 1;
nodes = (
"246 0 LINE",
"246 500 LINE",
"38 500 LINE",
"38 0 LINE"
);
}
);
width = 570;
},
{
layerId = "6256A6A1-72B9-4ADD-8383-8893F8BF5D61";
paths = (
{
closed = 1;
nodes = (
"483 0 LINE",
"483 347 LINE SMOOTH",
"483 442 OFFCURVE",
"424 505 OFFCURVE",
"317 505 CURVE SMOOTH",
"191 505 OFFCURVE",
"132 427 OFFCURVE",
"132 317 CURVE",
"186 317 LINE",
"186 372 OFFCURVE",
"219 406 OFFCURVE",
"273 406 CURVE SMOOTH",
"327 406 OFFCURVE",
"361 372 OFFCURVE",
"361 317 CURVE SMOOTH",
"361 0 LINE"
);
},
{
closed = 1;
nodes = (
"186 0 LINE",
"186 499 LINE",
"64 499 LINE",
"64 0 LINE"
);
}
);
width = 539;
}
);
unicode = 006E;
},
{
color = 1;
glyphname = o;
lastChange = "2016-10-17 10:26:31 +0000";
layers = (
{
layerId = "262880E7-CFE1-4BDA-902E-E24798F3240A";
paths = (
{
closed = 1;
nodes = (
"383 -5 OFFCURVE",
"444 56 OFFCURVE",
"444 156 CURVE SMOOTH",
"444 344 LINE SMOOTH",
"444 444 OFFCURVE",
"383 505 OFFCURVE",
"283 505 CURVE SMOOTH",
"183 505 OFFCURVE",
"122 444 OFFCURVE",
"122 344 CURVE SMOOTH",
"122 156 LINE SMOOTH",
"122 56 OFFCURVE",
"183 -5 OFFCURVE",
"283 -5 CURVE SMOOTH"
);
},
{
closed = 1;
nodes = (
"197 17 OFFCURVE",
"144 70 OFFCURVE",
"144 156 CURVE SMOOTH",
"144 344 LINE SMOOTH",
"144 431 OFFCURVE",
"197 484 OFFCURVE",
"283 484 CURVE SMOOTH",
"369 484 OFFCURVE",
"422 431 OFFCURVE",
"422 344 CURVE SMOOTH",
"422 156 LINE SMOOTH",
"422 70 OFFCURVE",
"369 17 OFFCURVE",
"283 17 CURVE SMOOTH"
);
}
);
width = 566;
},
{
layerId = "4F25946F-63AC-42D6-8D55-01CF6A99025B";
paths = (
{
closed = 1;
nodes = (
"414 -5 OFFCURVE",
"509 85 OFFCURVE",
"509 246 CURVE",
"509 257 LINE",
"507 416 OFFCURVE",
"412 505 OFFCURVE",
"253 505 CURVE",
"93 505 OFFCURVE",
"-1 416 OFFCURVE",
"-1 257 CURVE",
"-1 246 LINE",
"0 85 OFFCURVE",
"94 -5 OFFCURVE",
"253 -5 CURVE SMOOTH"
);
},
{
closed = 1;
nodes = (
"227 162 OFFCURVE",
"210 178 OFFCURVE",
"210 203 CURVE SMOOTH",
"210 297 LINE SMOOTH",
"210 322 OFFCURVE",
"227 338 OFFCURVE",
"253 338 CURVE SMOOTH",
"279 338 OFFCURVE",
"297 322 OFFCURVE",
"297 297 CURVE SMOOTH",
"297 203 LINE SMOOTH",
"297 178 OFFCURVE",
"279 162 OFFCURVE",
"253 162 CURVE SMOOTH"
);
}
);
width = 507;
},
{
layerId = "6256A6A1-72B9-4ADD-8383-8893F8BF5D61";
paths = (
{
closed = 1;
nodes = (
"372 -7 OFFCURVE",
"451 70 OFFCURVE",
"451 195 CURVE SMOOTH",
"451 307 LINE SMOOTH",
"451 431 OFFCURVE",
"372 507 OFFCURVE",
"244 507 CURVE SMOOTH",
"116 507 OFFCURVE",
"38 431 OFFCURVE",
"38 307 CURVE SMOOTH",
"38 195 LINE SMOOTH",
"38 70 OFFCURVE",
"116 -7 OFFCURVE",
"244 -7 CURVE SMOOTH"
);
},
{
closed = 1;
nodes = (
"191 105 OFFCURVE",
"156 140 OFFCURVE",
"156 192 CURVE SMOOTH",
"156 307 LINE SMOOTH",
"156 359 OFFCURVE",
"191 394 OFFCURVE",
"244 394 CURVE SMOOTH",
"297 394 OFFCURVE",
"332 359 OFFCURVE",
"332 307 CURVE SMOOTH",
"332 192 LINE SMOOTH",
"332 140 OFFCURVE",
"297 105 OFFCURVE",
"244 105 CURVE SMOOTH"
);
}
);
width = 489;
}
);
unicode = 006F;
},
{
color = 1;
glyphname = p;
lastChange = "2016-10-17 10:26:32 +0000";
layers = (
{
layerId = "262880E7-CFE1-4BDA-902E-E24798F3240A";
paths = (
{
closed = 1;
nodes = (
"396 -7 OFFCURVE",
"456 54 OFFCURVE",
"456 154 CURVE SMOOTH",
"456 346 LINE SMOOTH",
"456 446 OFFCURVE",
"396 507 OFFCURVE",
"298 507 CURVE SMOOTH",
"200 507 OFFCURVE",
"136 444 OFFCURVE",
"136 344 CURVE SMOOTH",
"136 156 LINE SMOOTH",
"136 56 OFFCURVE",
"200 -7 OFFCURVE",
"298 -7 CURVE SMOOTH"
);
},
{
closed = 1;
nodes = (
"209 14 OFFCURVE",
"156 67 OFFCURVE",
"156 154 CURVE SMOOTH",
"156 346 LINE SMOOTH",
"156 432 OFFCURVE",
"209 485 OFFCURVE",
"295 485 CURVE SMOOTH",
"381 485 OFFCURVE",
"434 432 OFFCURVE",
"434 346 CURVE SMOOTH",
"434 154 LINE SMOOTH",
"434 67 OFFCURVE",
"381 14 OFFCURVE",
"295 14 CURVE SMOOTH"
);
},
{
closed = 1;
nodes = (
"156 -200 LINE",
"156 500 LINE",
"134 500 LINE",
"134 -200 LINE"
);
}
);
width = 578;
},
{
layerId = "4F25946F-63AC-42D6-8D55-01CF6A99025B";
paths = (
{
closed = 1;
nodes = (
"476 -3 OFFCURVE",
"540 53 OFFCURVE",
"540 158 CURVE SMOOTH",
"540 348 LINE SMOOTH",
"540 442 OFFCURVE",
"465 505 OFFCURVE",
"352 505 CURVE",
"157 505 OFFCURVE",
"141 243 OFFCURVE",
"141 232 CURVE SMOOTH",
"141 218 LINE SMOOTH",
"141 118 OFFCURVE",
"232 -11 OFFCURVE",
"380 -6 CURVE SMOOTH"
);
},
{
closed = 1;
nodes = (
"263 158 OFFCURVE",
"246 174 OFFCURVE",
"246 199 CURVE SMOOTH",
"246 291 LINE SMOOTH",
"246 316 OFFCURVE",
"263 332 OFFCURVE",
"289 332 CURVE SMOOTH",
"315 332 OFFCURVE",
"333 316 OFFCURVE",
"333 291 CURVE SMOOTH",
"333 199 LINE SMOOTH",
"333 174 OFFCURVE",
"315 158 OFFCURVE",
"289 158 CURVE SMOOTH"
);
},
{
closed = 1;
nodes = (
"246 -200 LINE",
"246 502 LINE",
"38 502 LINE",
"38 -200 LINE"
);
}
);
width = 558;
},
{
layerId = "6256A6A1-72B9-4ADD-8383-8893F8BF5D61";
paths = (
{
closed = 1;
nodes = (
"405 -5 OFFCURVE",
"481 53 OFFCURVE",
"481 150 CURVE SMOOTH",
"481 342 LINE SMOOTH",
"481 443 OFFCURVE",
"409 503 OFFCURVE",
"294 504 CURVE",
"190 505 OFFCURVE",
"119 421 OFFCURVE",
"119 295 CURVE SMOOTH",
"119 217 LINE SMOOTH",
"119 116 OFFCURVE",
"166 -5 OFFCURVE",
"307 -5 CURVE SMOOTH"
);
},
{
closed = 1;
nodes = (
"221 93 OFFCURVE",
"186 127 OFFCURVE",
"186 180 CURVE SMOOTH",
"186 317 LINE SMOOTH",
"186 370 OFFCURVE",
"221 404 OFFCURVE",
"275 404 CURVE SMOOTH",
"329 404 OFFCURVE",
"362 370 OFFCURVE",
"362 317 CURVE SMOOTH",
"362 180 LINE SMOOTH",
"362 127 OFFCURVE",
"329 93 OFFCURVE",
"275 93 CURVE SMOOTH"
);
},
{
closed = 1;
nodes = (
"186 -200 LINE",
"186 501 LINE",
"64 501 LINE",
"64 -200 LINE"
);
}
);
width = 526;
}
);
unicode = 0070;
},
{
color = 1;
glyphname = r;
lastChange = "2016-10-17 10:26:34 +0000";
layers = (
{
layerId = "262880E7-CFE1-4BDA-902E-E24798F3240A";
paths = (
{
closed = 1;
nodes = (
"156 331 LINE",
"156 418 OFFCURVE",
"206 483 OFFCURVE",
"288 483 CURVE SMOOTH",
"298 483 OFFCURVE",
"315 479 OFFCURVE",
"324 475 CURVE",
"341 488 LINE",
"327 496 OFFCURVE",
"307 502 OFFCURVE",
"288 502 CURVE SMOOTH",
"193 502 OFFCURVE",
"140 429 OFFCURVE",
"140 331 CURVE"
);
},
{
closed = 1;
nodes = (
"156 -1 LINE",
"156 500 LINE",
"134 500 LINE",
"134 -1 LINE"
);
}
);
width = 437;
},
{
layerId = "4F25946F-63AC-42D6-8D55-01CF6A99025B";
paths = (
{
closed = 1;
nodes = (
"246 268 LINE",
"246 302 OFFCURVE",
"285 317 OFFCURVE",
"322 317 CURVE SMOOTH",
"340 317 OFFCURVE",
"375 310 OFFCURVE",
"380 301 CURVE",
"422 464 LINE",
"418 486 OFFCURVE",
"394 505 OFFCURVE",
"351 505 CURVE SMOOTH",
"236 505 OFFCURVE",
"182 382 OFFCURVE",
"182 268 CURVE"
);
},
{
closed = 1;
nodes = (
"246 0 LINE",
"246 500 LINE",
"38 500 LINE",
"38 0 LINE"
);
}
);
width = 391;
},
{
layerId = "6256A6A1-72B9-4ADD-8383-8893F8BF5D61";
paths = (
{
closed = 1;
nodes = (
"185 297 LINE",
"185 356 OFFCURVE",
"229 394 OFFCURVE",
"287 394 CURVE SMOOTH",
"301 394 OFFCURVE",
"328 389 OFFCURVE",
"335 382 CURVE",
"365 475 LINE",
"357 490 OFFCURVE",
"334 504 OFFCURVE",
"303 504 CURVE SMOOTH",
"197 504 OFFCURVE",
"128 404 OFFCURVE",
"128 297 CURVE"
);
},
{
closed = 1;
nodes = (
"185 -1 LINE",
"185 500 LINE",
"64 500 LINE",
"64 -1 LINE"
);
}
);
width = 347;
}
);
unicode = 0072;
},
{
color = 1;
glyphname = s;
lastChange = "2016-10-17 10:26:34 +0000";
layers = (
{
layerId = "262880E7-CFE1-4BDA-902E-E24798F3240A";
paths = (
{
closed = 1;
nodes = (
"368 -3 OFFCURVE",
"435 47 OFFCURVE",
"435 126 CURVE SMOOTH",
"435 214 OFFCURVE",
"351 237 OFFCURVE",
"271 265 CURVE SMOOTH",
"182 296 OFFCURVE",
"133 311 OFFCURVE",
"133 372 CURVE SMOOTH",
"133 437 OFFCURVE",
"189 484 OFFCURVE",
"272 484 CURVE SMOOTH",
"355 484 OFFCURVE",
"411 438 OFFCURVE",
"411 369 CURVE SMOOTH",
"411 368 LINE",
"433 368 LINE",
"433 369 LINE SMOOTH",
"433 451 OFFCURVE",
"369 503 OFFCURVE",
"272 503 CURVE SMOOTH",
"175 503 OFFCURVE",
"111 450 OFFCURVE",
"111 372 CURVE SMOOTH",
"111 290 OFFCURVE",
"182 271 OFFCURVE",
"267 241 CURVE SMOOTH",
"343 214 OFFCURVE",
"413 196 OFFCURVE",
"413 126 CURVE SMOOTH",
"413 61 OFFCURVE",
"354 17 OFFCURVE",
"270 17 CURVE SMOOTH",
"186 17 OFFCURVE",
"131 60 OFFCURVE",
"131 126 CURVE SMOOTH",
"131 127 LINE",
"109 127 LINE",
"109 126 LINE SMOOTH",
"109 48 OFFCURVE",
"172 -3 OFFCURVE",
"270 -3 CURVE SMOOTH"
);
}
);
width = 544;
},
{
layerId = "4F25946F-63AC-42D6-8D55-01CF6A99025B";
paths = (
{
closed = 1;
nodes = (
"392 -10 OFFCURVE",
"477 62 OFFCURVE",
"477 151 CURVE SMOOTH",
"477 216 OFFCURVE",
"432 270 OFFCURVE",
"341 296 CURVE SMOOTH",
"281 313 OFFCURVE",
"205 318 OFFCURVE",
"205 351 CURVE SMOOTH",
"205 364 OFFCURVE",
"218 378 OFFCURVE",
"238 378 CURVE SMOOTH",
"258 378 OFFCURVE",
"274 364 OFFCURVE",
"274 341 CURVE",
"275 331 LINE",
"469 331 LINE",
"469 341 LINE",
"465 439 OFFCURVE",
"380 510 OFFCURVE",
"234 510 CURVE SMOOTH",
"86 510 OFFCURVE",
"2 437 OFFCURVE",
"2 353 CURVE SMOOTH",
"2 292 OFFCURVE",
"46 235 OFFCURVE",
"140 208 CURVE SMOOTH",
"196 192 OFFCURVE",
"268 187 OFFCURVE",
"268 149 CURVE SMOOTH",
"268 136 OFFCURVE",
"260 123 OFFCURVE",
"238 123 CURVE SMOOTH",
"219 123 OFFCURVE",
"204 133 OFFCURVE",
"200 155 CURVE SMOOTH",
"197 172 LINE",
"1 172 LINE",
"1 162 LINE",
"1 66 OFFCURVE",
"92 -10 OFFCURVE",
"244 -10 CURVE SMOOTH"
);
}
);
width = 476;
},
{
layerId = "6256A6A1-72B9-4ADD-8383-8893F8BF5D61";
paths = (
{
closed = 1;
nodes = (
"349 -10 OFFCURVE",
"423 53 OFFCURVE",
"423 139 CURVE SMOOTH",
"423 214 OFFCURVE",
"370 260 OFFCURVE",
"285 288 CURVE SMOOTH",
"225 308 OFFCURVE",
"156 314 OFFCURVE",
"156 361 CURVE SMOOTH",
"156 389 OFFCURVE",
"182 416 OFFCURVE",
"224 416 CURVE SMOOTH",
"265 416 OFFCURVE",
"295 393 OFFCURVE",
"295 355 CURVE SMOOTH",
"295 348 LINE",
"417 348 LINE",
"417 355 LINE SMOOTH",
"417 445 OFFCURVE",
"343 510 OFFCURVE",
"223 510 CURVE SMOOTH",
"102 510 OFFCURVE",
"30 445 OFFCURVE",
"30 361 CURVE SMOOTH",
"30 291 OFFCURVE",
"81 246 OFFCURVE",
"167 217 CURVE SMOOTH",
"224 198 OFFCURVE",
"293 189 OFFCURVE",
"293 139 CURVE SMOOTH",
"293 106 OFFCURVE",
"264 84 OFFCURVE",
"223 84 CURVE SMOOTH",
"182 84 OFFCURVE",
"154 106 OFFCURVE",
"154 140 CURVE SMOOTH",
"154 151 LINE",
"28 151 LINE",
"28 145 LINE SMOOTH",
"28 56 OFFCURVE",
"105 -10 OFFCURVE",
"229 -10 CURVE SMOOTH"
);
}
);
width = 451;
}
);
unicode = 0073;
},
{
color = 1;
glyphname = t;
lastChange = "2016-10-17 10:26:32 +0000";
layers = (
{
layerId = "262880E7-CFE1-4BDA-902E-E24798F3240A";
paths = (
{
closed = 1;
nodes = (
"310 2 LINE",
"310 24 LINE",
"286 24 LINE SMOOTH",
"205 24 OFFCURVE",
"182 59 OFFCURVE",
"182 155 CURVE SMOOTH",
"182 479 LINE",
"296 479 LINE",
"296 500 LINE",
"182 500 LINE",
"182 610 LINE",
"160 610 LINE",
"160 500 LINE",
"96 500 LINE",
"96 479 LINE",
"160 479 LINE",
"160 155 LINE SMOOTH",
"160 45 OFFCURVE",
"192 2 OFFCURVE",
"286 2 CURVE SMOOTH"
);
}
);
width = 408;
},
{
layerId = "4F25946F-63AC-42D6-8D55-01CF6A99025B";
paths = (
{
closed = 1;
nodes = (
"300 12 LINE",
"306 192 LINE",
"303 192 LINE",
"265 188 OFFCURVE",
"243 183 OFFCURVE",
"243 214 CURVE SMOOTH",
"243 326 LINE",
"323 326 LINE",
"323 500 LINE",
"243 500 LINE",
"243 700 LINE",
"49 700 LINE",
"49 500 LINE",
"5 500 LINE",
"5 326 LINE",
"49 326 LINE",
"49 174 LINE SMOOTH",
"49 14 OFFCURVE",
"112 -13 OFFCURVE",
"294 12 CURVE"
);
}
);
width = 337;
},
{
layerId = "6256A6A1-72B9-4ADD-8383-8893F8BF5D61";
paths = (
{
closed = 1;
nodes = (
"277 1 LINE",
"278 98 LINE",
"265 98 LINE SMOOTH",
"197 98 OFFCURVE",
"185 120 OFFCURVE",
"185 181 CURVE SMOOTH",
"185 397 LINE",
"280 397 LINE",
"280 500 LINE",
"185 500 LINE",
"185 658 LINE",
"70 658 LINE",
"70 500 LINE",
"17 500 LINE",
"17 397 LINE",
"70 397 LINE",
"70 159 LINE SMOOTH",
"70 22 OFFCURVE",
"151 1 OFFCURVE",
"260 1 CURVE SMOOTH"
);
}
);
width = 299;
}
);
unicode = 0074;
},
{
color = 1;
glyphname = u;
lastChange = "2016-10-17 10:26:31 +0000";
layers = (
{
layerId = "262880E7-CFE1-4BDA-902E-E24798F3240A";
paths = (
{
closed = 1;
nodes = (
"386 -3 OFFCURVE",
"445 58 OFFCURVE",
"445 157 CURVE",
"428 157 LINE",
"428 70 OFFCURVE",
"375 17 OFFCURVE",
"289 17 CURVE SMOOTH",
"203 17 OFFCURVE",
"150 70 OFFCURVE",
"150 157 CURVE SMOOTH",
"150 500 LINE",
"128 500 LINE",
"128 156 LINE SMOOTH",
"128 57 OFFCURVE",
"189 -3 OFFCURVE",
"289 -3 CURVE SMOOTH"
);
},
{
closed = 1;
nodes = (
"450 0 LINE",
"450 500 LINE",
"428 500 LINE",
"428 0 LINE"
);
}
);
width = 584;
},
{
layerId = "4F25946F-63AC-42D6-8D55-01CF6A99025B";
paths = (
{
closed = 1;
nodes = (
"344 -2 OFFCURVE",
"391 96 OFFCURVE",
"391 196 CURVE",
"326 188 LINE",
"326 165 OFFCURVE",
"308 150 OFFCURVE",
"282 150 CURVE SMOOTH",
"256 150 OFFCURVE",
"239 165 OFFCURVE",
"239 188 CURVE SMOOTH",
"239 500 LINE",
"31 500 LINE",
"31 150 LINE SMOOTH",
"31 49 OFFCURVE",
"80 -2 OFFCURVE",
"191 -2 CURVE SMOOTH"
);
},
{
closed = 1;
nodes = (
"533 0 LINE",
"533 500 LINE",
"326 500 LINE",
"326 0 LINE"
);
}
);
width = 571;
},
{
layerId = "6256A6A1-72B9-4ADD-8383-8893F8BF5D61";
paths = (
{
closed = 1;
nodes = (
"343 -5 OFFCURVE",
"403 72 OFFCURVE",
"403 175 CURVE",
"352 173 LINE",
"352 122 OFFCURVE",
"317 88 OFFCURVE",
"264 88 CURVE SMOOTH",
"212 88 OFFCURVE",
"177 122 OFFCURVE",
"177 173 CURVE SMOOTH",
"177 500 LINE",
"55 500 LINE",
"55 153 LINE SMOOTH",
"55 56 OFFCURVE",
"123 -5 OFFCURVE",
"234 -5 CURVE SMOOTH"
);
},
{
closed = 1;
nodes = (
"474 0 LINE",
"474 500 LINE",
"352 500 LINE",
"352 0 LINE"
);
}
);
width = 538;
}
);
unicode = 0075;
},
{
color = 1;
glyphname = v;
lastChange = "2016-10-17 10:26:32 +0000";
layers = (
{
layerId = "262880E7-CFE1-4BDA-902E-E24798F3240A";
paths = (
{
closed = 1;
nodes = (
"286 3 LINE",
"451 500 LINE",
"429 500 LINE",
"275 38 LINE",
"121 500 LINE",
"99 500 LINE",
"264 3 LINE"
);
}
);
width = 550;
},
{
layerId = "4F25946F-63AC-42D6-8D55-01CF6A99025B";
paths = (
{
closed = 1;
nodes = (
"323 0 LINE",
"487 500 LINE",
"276 500 LINE",
"227 257 LINE",
"178 500 LINE",
"-33 500 LINE",
"131 0 LINE"
);
}
);
width = 454;
},
{
layerId = "6256A6A1-72B9-4ADD-8383-8893F8BF5D61";
paths = (
{
closed = 1;
nodes = (
"266 0 LINE",
"424 500 LINE",
"302 500 LINE",
"209 161 LINE",
"115 500 LINE",
"-7 500 LINE",
"152 0 LINE"
);
}
);
width = 418;
}
);
unicode = 0076;
},
{
color = 1;
glyphname = w;
lastChange = "2016-10-17 10:26:33 +0000";
layers = (
{
layerId = "262880E7-CFE1-4BDA-902E-E24798F3240A";
paths = (
{
closed = 1;
nodes = (
"257 0 LINE",
"381 458 LINE",
"505 0 LINE",
"527 0 LINE",
"662 500 LINE",
"640 500 LINE",
"516 42 LINE",
"392 500 LINE",
"370 500 LINE",
"246 42 LINE",
"122 500 LINE",
"100 500 LINE",
"235 0 LINE"
);
}
);
width = 762;
},
{
layerId = "4F25946F-63AC-42D6-8D55-01CF6A99025B";
paths = (
{
closed = 1;
nodes = (
"291 0 LINE",
"324 240 LINE",
"361 0 LINE",
"551 0 LINE",
"671 500 LINE",
"477 500 LINE",
"444 287 LINE",
"408 500 LINE",
"238 500 LINE",
"203 287 LINE",
"168 500 LINE",
"-19 500 LINE",
"100 0 LINE"
);
}
);
width = 651;
},
{
layerId = "6256A6A1-72B9-4ADD-8383-8893F8BF5D61";
paths = (
{
closed = 1;
nodes = (
"242 0 LINE",
"318 341 LINE",
"395 0 LINE",
"507 0 LINE",
"634 500 LINE",
"520 500 LINE",
"445 173 LINE",
"368 500 LINE",
"266 500 LINE",
"190 173 LINE",
"114 500 LINE",
"3 500 LINE",
"130 0 LINE"
);
}
);
width = 637;
}
);
unicode = 0077;
},
{
color = 1;
glyphname = x;
lastChange = "2016-10-17 10:26:34 +0000";
layers = (
{
layerId = "262880E7-CFE1-4BDA-902E-E24798F3240A";
paths = (
{
closed = 1;
nodes = (
"429 501 LINE",
"275 267 LINE",
"121 501 LINE",
"99 501 LINE",
"264 250 LINE",
"99 -1 LINE",
"121 -1 LINE",
"275 233 LINE",
"429 -1 LINE",
"451 -1 LINE",
"286 250 LINE",
"451 501 LINE"
);
}
);
width = 550;
},
{
layerId = "4F25946F-63AC-42D6-8D55-01CF6A99025B";
paths = (
{
closed = 1;
nodes = (
"281 500 LINE",
"236 411 LINE",
"192 500 LINE",
"-30 500 LINE",
"128 250 LINE",
"-30 0 LINE",
"192 0 LINE",
"236 89 LINE",
"281 0 LINE",
"502 0 LINE",
"345 250 LINE",
"502 500 LINE"
);
}
);
width = 472;
},
{
associatedMasterId = "262880E7-CFE1-4BDA-902E-E24798F3240A";
layerId = "A7F0FF68-370D-4ABA-A088-97B4F33DE289";
name = "Light Oct 15 16, 02:53";
paths = (
{
closed = 1;
nodes = (
"368 501 LINE",
"390 501 LINE",
"60 -1 LINE",
"38 -1 LINE"
);
},
{
closed = 1;
nodes = (
"38 501 LINE",
"60 501 LINE",
"390 -1 LINE",
"368 -1 LINE"
);
}
);
width = 428;
},
{
associatedMasterId = "4F25946F-63AC-42D6-8D55-01CF6A99025B";
layerId = "C8E6816F-D14D-432C-92C0-4654658DD355";
name = "Bold Oct 15 16, 02:53";
paths = (
{
closed = 1;
nodes = (
"306 500 LINE",
"527 500 LINE",
"217 0 LINE",
"-5 0 LINE"
);
},
{
closed = 1;
nodes = (
"-5 500 LINE",
"217 500 LINE",
"527 0 LINE",
"306 0 LINE"
);
}
);
width = 522;
},
{
layerId = "6256A6A1-72B9-4ADD-8383-8893F8BF5D61";
paths = (
{
closed = 1;
nodes = (
"314 500 LINE",
"218 344 LINE",
"123 500 LINE",
"-6 500 LINE",
"155 250 LINE",
"-6 0 LINE",
"123 0 LINE",
"218 156 LINE",
"314 0 LINE",
"442 0 LINE",
"282 250 LINE",
"442 500 LINE"
);
}
);
width = 436;
}
);
unicode = 0078;
},
{
color = 1;
glyphname = y;
lastChange = "2016-10-17 10:26:30 +0000";
layers = (
{
layerId = "262880E7-CFE1-4BDA-902E-E24798F3240A";
paths = (
{
closed = 1;
nodes = (
"276 33 LINE",
"121 500 LINE",
"99 500 LINE",
"265 -1 LINE",
"243 -67 LINE SMOOTH",
"209 -169 OFFCURVE",
"186 -190 OFFCURVE",
"123 -190 CURVE",
"123 -211 LINE",
"198 -211 OFFCURVE",
"229 -183 OFFCURVE",
"265 -73 CURVE SMOOTH",
"453 500 LINE",
"431 500 LINE"
);
}
);
width = 552;
},
{
layerId = "4F25946F-63AC-42D6-8D55-01CF6A99025B";
paths = (
{
closed = 1;
nodes = (
"218 321 LINE",
"172 500 LINE",
"-36 500 LINE",
"127 106 LINE",
"119 82 LINE SMOOTH",
"106 42 OFFCURVE",
"91 30 OFFCURVE",
"33 30 CURVE",
"33 -128 LINE",
"199 -128 OFFCURVE",
"257 -72 OFFCURVE",
"297 35 CURVE SMOOTH",
"472 500 LINE",
"264 500 LINE"
);
}
);
width = 434;
},
{
layerId = "6256A6A1-72B9-4ADD-8383-8893F8BF5D61";
paths = (
{
closed = 1;
nodes = (
"206 187 LINE",
"110 500 LINE",
"-12 500 LINE",
"152 56 LINE",
"138 13 LINE SMOOTH",
"115 -56 OFFCURVE",
"96 -72 OFFCURVE",
"36 -72 CURVE",
"36 -166 LINE",
"160 -166 OFFCURVE",
"205 -124 OFFCURVE",
"243 -15 CURVE SMOOTH",
"425 500 LINE",
"303 500 LINE"
);
}
);
width = 415;
}
);
unicode = 0079;
},
{
color = 1;
glyphname = z;
lastChange = "2016-10-17 10:26:33 +0000";
layers = (
{
layerId = "262880E7-CFE1-4BDA-902E-E24798F3240A";
paths = (
{
closed = 1;
nodes = (
"417 1 LINE",
"417 23 LINE",
"124 23 LINE",
"428 478 LINE",
"428 499 LINE",
"105 499 LINE",
"105 478 LINE",
"404 478 LINE",
"100 23 LINE",
"100 1 LINE"
);
}
);
width = 528;
},
{
layerId = "4F25946F-63AC-42D6-8D55-01CF6A99025B";
paths = (
{
closed = 1;
nodes = (
"434 10 LINE",
"434 157 LINE",
"259 157 LINE",
"438 348 LINE",
"438 496 LINE",
"17 496 LINE",
"17 348 LINE",
"205 347 LINE",
"18 157 LINE",
"17 10 LINE"
);
}
);
width = 454;
},
{
layerId = "6256A6A1-72B9-4ADD-8383-8893F8BF5D61";
paths = (
{
closed = 1;
nodes = (
"381 6 LINE",
"381 113 LINE",
"175 113 LINE",
"383 386 LINE",
"383 497 LINE",
"24 497 LINE",
"24 386 LINE",
"247 386 LINE",
"34 113 LINE",
"34 6 LINE"
);
}
);
width = 411;
}
);
unicode = 007A;
},
{
color = 1;
glyphname = zero;
lastChange = "2016-10-17 10:26:31 +0000";
layers = (
{
layerId = "262880E7-CFE1-4BDA-902E-E24798F3240A";
paths = (
{
closed = 1;
nodes = (
"418 -9 OFFCURVE",
"473 45 OFFCURVE",
"473 150 CURVE SMOOTH",
"473 550 LINE SMOOTH",
"473 655 OFFCURVE",
"418 709 OFFCURVE",
"313 709 CURVE SMOOTH",
"208 709 OFFCURVE",
"153 655 OFFCURVE",
"153 550 CURVE SMOOTH",
"153 150 LINE SMOOTH",
"153 45 OFFCURVE",
"208 -9 OFFCURVE",
"313 -9 CURVE SMOOTH"
);
},
{
closed = 1;
nodes = (
"222 11 OFFCURVE",
"175 58 OFFCURVE",
"175 150 CURVE SMOOTH",
"175 550 LINE SMOOTH",
"175 642 OFFCURVE",
"222 690 OFFCURVE",
"313 690 CURVE SMOOTH",
"404 690 OFFCURVE",
"451 642 OFFCURVE",
"451 550 CURVE SMOOTH",
"451 150 LINE SMOOTH",
"451 58 OFFCURVE",
"404 11 OFFCURVE",
"313 11 CURVE SMOOTH"
);
}
);
width = 626;
},
{
layerId = "4F25946F-63AC-42D6-8D55-01CF6A99025B";
paths = (
{
closed = 1;
nodes = (
"452 -10 OFFCURVE",
"540 73 OFFCURVE",
"540 233 CURVE SMOOTH",
"540 467 LINE SMOOTH",
"540 627 OFFCURVE",
"452 710 OFFCURVE",
"280 710 CURVE SMOOTH",
"108 710 OFFCURVE",
"20 627 OFFCURVE",
"20 467 CURVE SMOOTH",
"20 233 LINE SMOOTH",
"20 73 OFFCURVE",
"108 -10 OFFCURVE",
"280 -10 CURVE SMOOTH"
);
},
{
closed = 1;
nodes = (
"251 174 OFFCURVE",
"232 194 OFFCURVE",
"232 223 CURVE SMOOTH",
"232 477 LINE SMOOTH",
"232 506 OFFCURVE",
"251 526 OFFCURVE",
"280 526 CURVE SMOOTH",
"309 526 OFFCURVE",
"328 506 OFFCURVE",
"328 477 CURVE SMOOTH",
"328 223 LINE SMOOTH",
"328 194 OFFCURVE",
"309 174 OFFCURVE",
"280 174 CURVE SMOOTH"
);
}
);
width = 560;
},
{
layerId = "6256A6A1-72B9-4ADD-8383-8893F8BF5D61";
paths = (
{
closed = 1;
nodes = (
"415 -10 OFFCURVE",
"488 60 OFFCURVE",
"488 195 CURVE SMOOTH",
"488 505 LINE SMOOTH",
"488 640 OFFCURVE",
"415 710 OFFCURVE",
"274 710 CURVE SMOOTH",
"133 710 OFFCURVE",
"60 640 OFFCURVE",
"60 505 CURVE SMOOTH",
"60 195 LINE SMOOTH",
"60 60 OFFCURVE",
"133 -10 OFFCURVE",
"274 -10 CURVE SMOOTH"
);
},
{
closed = 1;
nodes = (
"216 98 OFFCURVE",
"184 131 OFFCURVE",
"184 189 CURVE SMOOTH",
"184 511 LINE SMOOTH",
"184 569 OFFCURVE",
"216 602 OFFCURVE",
"274 602 CURVE SMOOTH",
"332 602 OFFCURVE",
"364 569 OFFCURVE",
"364 511 CURVE SMOOTH",
"364 189 LINE SMOOTH",
"364 131 OFFCURVE",
"332 98 OFFCURVE",
"274 98 CURVE SMOOTH"
);
}
);
width = 547;
}
);
unicode = 0030;
},
{
color = 1;
glyphname = one;
lastChange = "2016-10-17 10:26:34 +0000";
layers = (
{
layerId = "4F25946F-63AC-42D6-8D55-01CF6A99025B";
paths = (
{
closed = 1;
nodes = (
"276 0 LINE",
"276 700 LINE",
"64 700 LINE",
"64 0 LINE"
);
},
{
closed = 1;
nodes = (
"1 512 LINE",
"64 512 LINE",
"64 700 LINE",
"1 674 LINE"
);
}
);
width = 322;
},
{
layerId = "262880E7-CFE1-4BDA-902E-E24798F3240A";
paths = (
{
closed = 1;
nodes = (
"186 0 LINE",
"186 700 LINE",
"164 700 LINE",
"164 0 LINE"
);
},
{
closed = 1;
nodes = (
"123 646 LINE",
"164 662 LINE",
"164 700 LINE",
"123 668 LINE"
);
}
);
width = 346;
},
{
layerId = "6256A6A1-72B9-4ADD-8383-8893F8BF5D61";
paths = (
{
closed = 1;
nodes = (
"211 0 LINE",
"211 700 LINE",
"87 700 LINE",
"87 0 LINE"
);
},
{
closed = 1;
nodes = (
"34 574 LINE",
"87 582 LINE",
"87 700 LINE",
"34 671 LINE"
);
}
);
width = 288;
}
);
unicode = 0031;
},
{
color = 1;
glyphname = two;
lastChange = "2016-10-17 10:26:32 +0000";
layers = (
{
layerId = "4F25946F-63AC-42D6-8D55-01CF6A99025B";
paths = (
{
closed = 1;
nodes = (
"504 0 LINE",
"504 188 LINE",
"257 188 LINE",
"488 447 LINE",
"505 475 OFFCURVE",
"516 500 OFFCURVE",
"516 534 CURVE SMOOTH",
"516 633 OFFCURVE",
"421 700 OFFCURVE",
"264 700 CURVE SMOOTH",
"105 700 OFFCURVE",
"4 631 OFFCURVE",
"4 519 CURVE",
"4 454 LINE",
"212 455 LINE",
"212 481 LINE",
"212 506 OFFCURVE",
"229 523 OFFCURVE",
"254 523 CURVE SMOOTH",
"282 523 OFFCURVE",
"294 502 OFFCURVE",
"294 489 CURVE SMOOTH",
"294 474 OFFCURVE",
"280 455 OFFCURVE",
"255 426 CURVE",
"7 171 LINE",
"7 0 LINE"
);
}
);
width = 517;
},
{
layerId = "262880E7-CFE1-4BDA-902E-E24798F3240A";
paths = (
{
closed = 1;
nodes = (
"463 0 LINE",
"463 22 LINE",
"160 22 LINE",
"400 364 LINE SMOOTH",
"438 419 OFFCURVE",
"462 470 OFFCURVE",
"462 530 CURVE SMOOTH",
"462 615 OFFCURVE",
"413 710 OFFCURVE",
"299 710 CURVE SMOOTH",
"194 710 OFFCURVE",
"131 635 OFFCURVE",
"131 500 CURVE",
"131 479 LINE",
"152 479 LINE",
"152 500 LINE SMOOTH",
"152 618 OFFCURVE",
"207 690 OFFCURVE",
"298 690 CURVE SMOOTH",
"386 690 OFFCURVE",
"441 622 OFFCURVE",
"441 530 CURVE SMOOTH",
"441 478 OFFCURVE",
"423 434 OFFCURVE",
"395 395 CURVE SMOOTH",
"132 21 LINE",
"131 0 LINE"
);
}
);
width = 595;
},
{
layerId = "6256A6A1-72B9-4ADD-8383-8893F8BF5D61";
paths = (
{
closed = 1;
nodes = (
"448 0 LINE",
"448 111 LINE",
"175 111 LINE",
"408 410 LINE SMOOTH",
"438 448 OFFCURVE",
"454 486 OFFCURVE",
"454 532 CURVE SMOOTH",
"454 625 OFFCURVE",
"380 705 OFFCURVE",
"243 705 CURVE SMOOTH",
"109 705 OFFCURVE",
"26 633 OFFCURVE",
"26 510 CURVE",
"26 466 LINE",
"147 466 LINE",
"147 490 LINE SMOOTH",
"147 558 OFFCURVE",
"181 600 OFFCURVE",
"237 600 CURVE SMOOTH",
"293 600 OFFCURVE",
"325 558 OFFCURVE",
"325 508 CURVE SMOOTH",
"325 476 OFFCURVE",
"309 445 OFFCURVE",
"283 412 CURVE SMOOTH",
"28 101 LINE",
"27 0 LINE"
);
}
);
width = 481;
}
);
unicode = 0032;
},
{
color = 1;
glyphname = eight;
lastChange = "2016-10-17 10:26:33 +0000";
layers = (
{
layerId = "262880E7-CFE1-4BDA-902E-E24798F3240A";
paths = (
{
closed = 1;
nodes = (
"411 364 OFFCURVE",
"466 418 OFFCURVE",
"466 523 CURVE SMOOTH",
"466 548 LINE SMOOTH",
"466 653 OFFCURVE",
"411 707 OFFCURVE",
"306 707 CURVE SMOOTH",
"201 707 OFFCURVE",
"146 653 OFFCURVE",
"146 548 CURVE SMOOTH",
"146 523 LINE SMOOTH",
"146 418 OFFCURVE",
"201 364 OFFCURVE",
"306 364 CURVE SMOOTH"
);
},
{
closed = 1;
nodes = (
"215 384 OFFCURVE",
"168 431 OFFCURVE",
"168 523 CURVE SMOOTH",
"168 548 LINE SMOOTH",
"168 640 OFFCURVE",
"215 688 OFFCURVE",
"306 688 CURVE SMOOTH",
"397 688 OFFCURVE",
"444 640 OFFCURVE",
"444 548 CURVE SMOOTH",
"444 523 LINE SMOOTH",
"444 431 OFFCURVE",
"397 384 OFFCURVE",
"306 384 CURVE SMOOTH"
);
},
{
closed = 1;
nodes = (
"411 -18 OFFCURVE",
"466 36 OFFCURVE",
"466 141 CURVE SMOOTH",
"466 225 LINE SMOOTH",
"466 330 OFFCURVE",
"411 384 OFFCURVE",
"306 384 CURVE SMOOTH",
"201 384 OFFCURVE",
"146 330 OFFCURVE",
"146 225 CURVE SMOOTH",
"146 141 LINE SMOOTH",
"146 36 OFFCURVE",
"201 -18 OFFCURVE",
"306 -18 CURVE SMOOTH"
);
},
{
closed = 1;
nodes = (
"215 2 OFFCURVE",
"168 49 OFFCURVE",
"168 141 CURVE SMOOTH",
"168 225 LINE SMOOTH",
"168 317 OFFCURVE",
"215 365 OFFCURVE",
"306 365 CURVE SMOOTH",
"397 365 OFFCURVE",
"444 317 OFFCURVE",
"444 225 CURVE SMOOTH",
"444 141 LINE SMOOTH",
"444 49 OFFCURVE",
"397 2 OFFCURVE",
"306 2 CURVE SMOOTH"
);
}
);
width = 612;
},
{
layerId = "4F25946F-63AC-42D6-8D55-01CF6A99025B";
paths = (
{
closed = 1;
nodes = (
"307 337 OFFCURVE",
"498 343 OFFCURVE",
"498 498 CURVE",
"498 507 LINE",
"496 641 OFFCURVE",
"415 711 OFFCURVE",
"262 711 CURVE",
"108 711 OFFCURVE",
"28 650 OFFCURVE",
"28 516 CURVE",
"28 507 LINE",
"29 344 OFFCURVE",
"209 337 OFFCURVE",
"262 337 CURVE SMOOTH"
);
},
{
closed = 1;
nodes = (
"236 452 OFFCURVE",
"219 468 OFFCURVE",
"219 493 CURVE SMOOTH",
"219 537 LINE SMOOTH",
"219 562 OFFCURVE",
"236 578 OFFCURVE",
"262 578 CURVE SMOOTH",
"288 578 OFFCURVE",
"306 562 OFFCURVE",
"306 537 CURVE SMOOTH",
"306 493 LINE SMOOTH",
"306 468 OFFCURVE",
"288 452 OFFCURVE",
"262 452 CURVE SMOOTH"
);
},
{
closed = 1;
nodes = (
"437 -5 OFFCURVE",
"518 77 OFFCURVE",
"518 202 CURVE",
"518 231 LINE",
"518 324 OFFCURVE",
"427 455 OFFCURVE",
"263 401 CURVE",
"105 455 OFFCURVE",
"8 316 OFFCURVE",
"8 231 CURVE",
"8 202 LINE",
"9 69 OFFCURVE",
"95 -5 OFFCURVE",
"262 -5 CURVE SMOOTH"
);
},
{
closed = 1;
nodes = (
"236 143 OFFCURVE",
"219 159 OFFCURVE",
"219 184 CURVE SMOOTH",
"219 262 LINE SMOOTH",
"219 287 OFFCURVE",
"236 303 OFFCURVE",
"262 303 CURVE",
"288 303 OFFCURVE",
"306 287 OFFCURVE",
"306 262 CURVE SMOOTH",
"306 184 LINE SMOOTH",
"306 159 OFFCURVE",
"288 143 OFFCURVE",
"262 143 CURVE SMOOTH"
);
}
);
width = 526;
},
{
associatedMasterId = "4F25946F-63AC-42D6-8D55-01CF6A99025B";
layerId = "9541491C-EA7C-4850-9E65-38E203544E44";
name = "Medium {91,100}";
paths = (
{
closed = 1;
nodes = (
"372 344 OFFCURVE",
"442 407 OFFCURVE",
"442 514 CURVE SMOOTH",
"442 532 LINE SMOOTH",
"442 643 OFFCURVE",
"372 709 OFFCURVE",
"254 709 CURVE SMOOTH",
"135 709 OFFCURVE",
"65 645 OFFCURVE",
"65 536 CURVE SMOOTH",
"65 517 LINE SMOOTH",
"66 408 OFFCURVE",
"136 344 OFFCURVE",
"254 344 CURVE SMOOTH"
);
},
{
closed = 1;
nodes = (
"193 409 OFFCURVE",
"152 450 OFFCURVE",
"152 511 CURVE SMOOTH",
"152 540 LINE SMOOTH",
"152 601 OFFCURVE",
"193 642 OFFCURVE",
"254 642 CURVE SMOOTH",
"315 642 OFFCURVE",
"356 601 OFFCURVE",
"356 540 CURVE SMOOTH",
"356 511 LINE SMOOTH",
"356 450 OFFCURVE",
"315 409 OFFCURVE",
"254 409 CURVE SMOOTH"
);
},
{
closed = 1;
nodes = (
"377 -13 OFFCURVE",
"450 53 OFFCURVE",
"450 164 CURVE SMOOTH",
"450 227 LINE SMOOTH",
"450 350 OFFCURVE",
"377 410 OFFCURVE",
"254 390 CURVE SMOOTH",
"131 411 OFFCURVE",
"58 350 OFFCURVE",
"58 227 CURVE SMOOTH",
"58 164 LINE SMOOTH",
"58 53 OFFCURVE",
"131 -13 OFFCURVE",
"254 -13 CURVE SMOOTH"
);
},
{
closed = 1;
nodes = (
"193 61 OFFCURVE",
"152 102 OFFCURVE",
"152 163 CURVE SMOOTH",
"152 242 LINE SMOOTH",
"152 303 OFFCURVE",
"193 344 OFFCURVE",
"254 344 CURVE SMOOTH",
"315 344 OFFCURVE",
"356 303 OFFCURVE",
"356 242 CURVE SMOOTH",
"356 163 LINE SMOOTH",
"356 102 OFFCURVE",
"315 61 OFFCURVE",
"254 61 CURVE SMOOTH"
);
}
);
width = 508;
},
{
layerId = "6256A6A1-72B9-4ADD-8383-8893F8BF5D61";
paths = (
{
closed = 1;
nodes = (
"360 342 OFFCURVE",
"460 391 OFFCURVE",
"460 510 CURVE SMOOTH",
"460 526 LINE SMOOTH",
"460 642 OFFCURVE",
"387 710 OFFCURVE",
"260 710 CURVE SMOOTH",
"132 710 OFFCURVE",
"60 646 OFFCURVE",
"60 531 CURVE SMOOTH",
"60 514 LINE SMOOTH",
"61 392 OFFCURVE",
"158 342 OFFCURVE",
"260 342 CURVE SMOOTH"
);
},
{
closed = 1;
nodes = (
"208 420 OFFCURVE",
"173 455 OFFCURVE",
"173 506 CURVE SMOOTH",
"173 539 LINE SMOOTH",
"173 591 OFFCURVE",
"208 626 OFFCURVE",
"260 626 CURVE SMOOTH",
"312 626 OFFCURVE",
"347 591 OFFCURVE",
"347 539 CURVE SMOOTH",
"347 506 LINE SMOOTH",
"347 455 OFFCURVE",
"312 420 OFFCURVE",
"260 420 CURVE SMOOTH"
);
},
{
closed = 1;
nodes = (
"396 -11 OFFCURVE",
"471 59 OFFCURVE",
"471 174 CURVE SMOOTH",
"471 228 LINE SMOOTH",
"471 343 OFFCURVE",
"394 421 OFFCURVE",
"260 393 CURVE SMOOTH",
"128 422 OFFCURVE",
"49 341 OFFCURVE",
"49 228 CURVE SMOOTH",
"49 174 LINE SMOOTH",
"50 57 OFFCURVE",
"126 -11 OFFCURVE",
"260 -11 CURVE SMOOTH"
);
},
{
closed = 1;
nodes = (
"208 82 OFFCURVE",
"173 116 OFFCURVE",
"173 168 CURVE SMOOTH",
"173 247 LINE SMOOTH",
"173 299 OFFCURVE",
"208 334 OFFCURVE",
"260 334 CURVE SMOOTH",
"312 334 OFFCURVE",
"347 299 OFFCURVE",
"347 247 CURVE SMOOTH",
"347 168 LINE SMOOTH",
"347 116 OFFCURVE",
"312 82 OFFCURVE",
"260 82 CURVE SMOOTH"
);
}
);
width = 520;
}
);
unicode = 0038;
},
{
color = 1;
glyphname = colon;
lastChange = "2016-10-17 10:26:34 +0000";
layers = (
{
layerId = "262880E7-CFE1-4BDA-902E-E24798F3240A";
paths = (
{
closed = 1;
nodes = (
"231 37 OFFCURVE",
"250 55 OFFCURVE",
"250 78 CURVE SMOOTH",
"250 100 OFFCURVE",
"231 118 OFFCURVE",
"209 118 CURVE SMOOTH",
"187 118 OFFCURVE",
"168 100 OFFCURVE",
"168 78 CURVE SMOOTH",
"168 55 OFFCURVE",
"186 37 OFFCURVE",
"209 37 CURVE SMOOTH"
);
},
{
closed = 1;
nodes = (
"231 350 OFFCURVE",
"250 368 OFFCURVE",
"250 391 CURVE SMOOTH",
"250 413 OFFCURVE",
"231 431 OFFCURVE",
"209 431 CURVE SMOOTH",
"187 431 OFFCURVE",
"168 413 OFFCURVE",
"168 391 CURVE SMOOTH",
"168 368 OFFCURVE",
"186 350 OFFCURVE",
"209 350 CURVE SMOOTH"
);
}
);
width = 418;
},
{
layerId = "4F25946F-63AC-42D6-8D55-01CF6A99025B";
paths = (
{
closed = 1;
nodes = (
"187 -6 OFFCURVE",
"236 40 OFFCURVE",
"236 99 CURVE",
"236 156 OFFCURVE",
"187 202 OFFCURVE",
"130 202 CURVE SMOOTH",
"73 202 OFFCURVE",
"24 156 OFFCURVE",
"24 99 CURVE SMOOTH",
"24 40 OFFCURVE",
"71 -6 OFFCURVE",
"130 -6 CURVE SMOOTH"
);
},
{
closed = 1;
nodes = (
"187 288 OFFCURVE",
"236 334 OFFCURVE",
"236 393 CURVE",
"236 450 OFFCURVE",
"187 496 OFFCURVE",
"130 496 CURVE SMOOTH",
"73 496 OFFCURVE",
"24 450 OFFCURVE",
"24 393 CURVE SMOOTH",
"24 334 OFFCURVE",
"71 288 OFFCURVE",
"130 288 CURVE SMOOTH"
);
}
);
width = 259;
},
{
layerId = "6256A6A1-72B9-4ADD-8383-8893F8BF5D61";
paths = (
{
closed = 1;
nodes = (
"181 14 OFFCURVE",
"216 47 OFFCURVE",
"216 89 CURVE SMOOTH",
"216 130 OFFCURVE",
"181 163 OFFCURVE",
"140 163 CURVE SMOOTH",
"99 163 OFFCURVE",
"64 130 OFFCURVE",
"64 89 CURVE SMOOTH",
"64 47 OFFCURVE",
"98 14 OFFCURVE",
"140 14 CURVE SMOOTH"
);
},
{
closed = 1;
nodes = (
"181 317 OFFCURVE",
"216 350 OFFCURVE",
"216 392 CURVE SMOOTH",
"216 433 OFFCURVE",
"181 466 OFFCURVE",
"140 466 CURVE SMOOTH",
"99 466 OFFCURVE",
"64 433 OFFCURVE",
"64 392 CURVE SMOOTH",
"64 350 OFFCURVE",
"98 317 OFFCURVE",
"140 317 CURVE SMOOTH"
);
}
);
width = 279;
}
);
unicode = 003A;
},
{
color = 1;
glyphname = comma;
lastChange = "2016-10-17 10:26:33 +0000";
layers = (
{
layerId = "262880E7-CFE1-4BDA-902E-E24798F3240A";
paths = (
{
closed = 1;
nodes = (
"239 153 LINE",
"213 153 LINE",
"163 -66 LINE",
"184 -66 LINE"
);
}
);
width = 401;
},
{
layerId = "4F25946F-63AC-42D6-8D55-01CF6A99025B";
paths = (
{
closed = 1;
nodes = (
"244 143 LINE",
"64 142 LINE",
"45 -86 LINE",
"193 -86 LINE"
);
}
);
width = 274;
},
{
layerId = "6256A6A1-72B9-4ADD-8383-8893F8BF5D61";
paths = (
{
closed = 1;
nodes = (
"215 148 LINE",
"107 147 LINE",
"74 -77 LINE",
"163 -77 LINE"
);
}
);
width = 280;
}
);
unicode = 002C;
},
{
color = 1;
glyphname = exclam;
lastChange = "2016-10-17 10:26:35 +0000";
layers = (
{
layerId = "262880E7-CFE1-4BDA-902E-E24798F3240A";
paths = (
{
closed = 1;
nodes = (
"212 220 LINE",
"212 700 LINE",
"190 700 LINE",
"190 220 LINE"
);
},
{
closed = 1;
nodes = (
"220 5 OFFCURVE",
"239 23 OFFCURVE",
"239 46 CURVE SMOOTH",
"239 68 OFFCURVE",
"220 86 OFFCURVE",
"198 86 CURVE SMOOTH",
"176 86 OFFCURVE",
"157 68 OFFCURVE",
"157 46 CURVE SMOOTH",
"157 23 OFFCURVE",
"175 5 OFFCURVE",
"198 5 CURVE SMOOTH"
);
}
);
width = 401;
},
{
layerId = "4F25946F-63AC-42D6-8D55-01CF6A99025B";
paths = (
{
closed = 1;
nodes = (
"215 250 LINE",
"245 700 LINE",
"37 700 LINE",
"67 250 LINE"
);
},
{
closed = 1;
nodes = (
"196 -6 OFFCURVE",
"245 40 OFFCURVE",
"245 99 CURVE",
"245 156 OFFCURVE",
"196 202 OFFCURVE",
"139 202 CURVE SMOOTH",
"82 202 OFFCURVE",
"33 156 OFFCURVE",
"33 99 CURVE SMOOTH",
"33 40 OFFCURVE",
"80 -6 OFFCURVE",
"139 -6 CURVE SMOOTH"
);
}
);
width = 281;
},
{
layerId = "6256A6A1-72B9-4ADD-8383-8893F8BF5D61";
paths = (
{
closed = 1;
nodes = (
"188 236 LINE",
"204 700 LINE",
"83 700 LINE",
"99 236 LINE"
);
},
{
closed = 1;
nodes = (
"182 -1 OFFCURVE",
"217 32 OFFCURVE",
"217 74 CURVE SMOOTH",
"217 115 OFFCURVE",
"182 148 OFFCURVE",
"141 148 CURVE SMOOTH",
"100 148 OFFCURVE",
"65 115 OFFCURVE",
"65 74 CURVE SMOOTH",
"65 32 OFFCURVE",
"99 -1 OFFCURVE",
"141 -1 CURVE SMOOTH"
);
}
);
width = 286;
}
);
unicode = 0021;
},
{
color = 1;
glyphname = period;
lastChange = "2016-10-17 10:26:30 +0000";
layers = (
{
layerId = "262880E7-CFE1-4BDA-902E-E24798F3240A";
paths = (
{
closed = 1;
nodes = (
"242 5 OFFCURVE",
"261 23 OFFCURVE",
"261 46 CURVE SMOOTH",
"261 68 OFFCURVE",
"242 86 OFFCURVE",
"220 86 CURVE SMOOTH",
"198 86 OFFCURVE",
"179 68 OFFCURVE",
"179 46 CURVE SMOOTH",
"179 23 OFFCURVE",
"197 5 OFFCURVE",
"220 5 CURVE SMOOTH"
);
}
);
width = 440;
},
{
layerId = "4F25946F-63AC-42D6-8D55-01CF6A99025B";
paths = (
{
closed = 1;
nodes = (
"194 -6 OFFCURVE",
"243 40 OFFCURVE",
"243 99 CURVE",
"243 156 OFFCURVE",
"194 202 OFFCURVE",
"137 202 CURVE SMOOTH",
"80 202 OFFCURVE",
"31 156 OFFCURVE",
"31 99 CURVE SMOOTH",
"31 40 OFFCURVE",
"78 -6 OFFCURVE",
"137 -6 CURVE SMOOTH"
);
}
);
width = 274;
},
{
layerId = "6256A6A1-72B9-4ADD-8383-8893F8BF5D61";
paths = (
{
closed = 1;
nodes = (
"192 -1 OFFCURVE",
"227 32 OFFCURVE",
"227 74 CURVE SMOOTH",
"227 115 OFFCURVE",
"192 148 OFFCURVE",
"151 148 CURVE SMOOTH",
"110 148 OFFCURVE",
"75 115 OFFCURVE",
"75 74 CURVE SMOOTH",
"75 32 OFFCURVE",
"108 -1 OFFCURVE",
"151 -1 CURVE SMOOTH"
);
}
);
width = 302;
}
);
unicode = 002E;
},
{
color = 1;
glyphname = question;
lastChange = "2016-10-17 10:26:33 +0000";
layers = (
{
layerId = "4F25946F-63AC-42D6-8D55-01CF6A99025B";
paths = (
{
closed = 1;
nodes = (
"319 223 LINE",
"319 238 OFFCURVE",
"319 256 OFFCURVE",
"319 262 CURVE SMOOTH",
"319 330 OFFCURVE",
"475 329 OFFCURVE",
"475 494 CURVE SMOOTH",
"475 629 OFFCURVE",
"377 710 OFFCURVE",
"231 710 CURVE SMOOTH",
"76 710 OFFCURVE",
"-27 618 OFFCURVE",
"-27 479 CURVE SMOOTH",
"-27 474 LINE",
"185 464 LINE",
"185 479 LINE SMOOTH",
"185 502 OFFCURVE",
"201 518 OFFCURVE",
"225 518 CURVE SMOOTH",
"246 518 OFFCURVE",
"260 506 OFFCURVE",
"260 487 CURVE SMOOTH",
"260 424 OFFCURVE",
"115 423 OFFCURVE",
"115 290 CURVE SMOOTH",
"115 268 OFFCURVE",
"115 261 OFFCURVE",
"115 224 CURVE"
);
},
{
closed = 1;
nodes = (
"279 -6 OFFCURVE",
"328 40 OFFCURVE",
"328 99 CURVE",
"328 156 OFFCURVE",
"279 202 OFFCURVE",
"222 202 CURVE SMOOTH",
"165 202 OFFCURVE",
"116 156 OFFCURVE",
"116 99 CURVE SMOOTH",
"116 40 OFFCURVE",
"163 -6 OFFCURVE",
"222 -6 CURVE SMOOTH"
);
}
);
width = 459;
},
{
layerId = "262880E7-CFE1-4BDA-902E-E24798F3240A";
paths = (
{
closed = 1;
nodes = (
"335 239 LINE",
"305 243 OFFCURVE",
"290 254 OFFCURVE",
"290 275 CURVE SMOOTH",
"290 346 OFFCURVE",
"471 378 OFFCURVE",
"471 546 CURVE SMOOTH",
"471 645 OFFCURVE",
"408 709 OFFCURVE",
"314 709 CURVE SMOOTH",
"219 709 OFFCURVE",
"155 645 OFFCURVE",
"155 550 CURVE SMOOTH",
"155 500 LINE",
"177 500 LINE",
"177 550 LINE SMOOTH",
"177 633 OFFCURVE",
"232 688 OFFCURVE",
"314 688 CURVE SMOOTH",
"395 688 OFFCURVE",
"449 633 OFFCURVE",
"449 549 CURVE SMOOTH",
"449 395 OFFCURVE",
"266 364 OFFCURVE",
"266 271 CURVE SMOOTH",
"266 235 OFFCURVE",
"294 213 OFFCURVE",
"335 215 CURVE"
);
},
{
closed = 1;
nodes = (
"321 5 OFFCURVE",
"340 23 OFFCURVE",
"340 46 CURVE SMOOTH",
"340 68 OFFCURVE",
"321 86 OFFCURVE",
"299 86 CURVE SMOOTH",
"277 86 OFFCURVE",
"258 68 OFFCURVE",
"258 46 CURVE SMOOTH",
"258 23 OFFCURVE",
"276 5 OFFCURVE",
"299 5 CURVE SMOOTH"
);
}
);
width = 627;
},
{
associatedMasterId = "4F25946F-63AC-42D6-8D55-01CF6A99025B";
layerId = "E56F6CC4-F9B5-46E1-BC01-FC7B34A3882B";
name = "DemiBold {119,100}";
paths = (
{
closed = 1;
nodes = (
"344 261 LINE",
"333 262 OFFCURVE",
"324 261 OFFCURVE",
"324 276 CURVE SMOOTH",
"324 341 OFFCURVE",
"489 355 OFFCURVE",
"489 519 CURVE SMOOTH",
"489 634 OFFCURVE",
"409 710 OFFCURVE",
"286 710 CURVE SMOOTH",
"161 710 OFFCURVE",
"74 630 OFFCURVE",
"74 512 CURVE SMOOTH",
"74 486 LINE",
"198 481 LINE",
"198 512 LINE SMOOTH",
"198 562 OFFCURVE",
"231 597 OFFCURVE",
"283 597 CURVE SMOOTH",
"333 597 OFFCURVE",
"364 565 OFFCURVE",
"364 516 CURVE SMOOTH",
"364 401 OFFCURVE",
"194 408 OFFCURVE",
"194 270 CURVE SMOOTH",
"194 214 OFFCURVE",
"222 166 OFFCURVE",
"332 182 CURVE"
);
},
{
closed = 1;
nodes = (
"313 -1 OFFCURVE",
"348 32 OFFCURVE",
"348 74 CURVE SMOOTH",
"348 115 OFFCURVE",
"313 148 OFFCURVE",
"272 148 CURVE SMOOTH",
"232 148 OFFCURVE",
"197 115 OFFCURVE",
"197 74 CURVE SMOOTH",
"197 32 OFFCURVE",
"230 -1 OFFCURVE",
"272 -1 CURVE SMOOTH"
);
}
);
width = 539;
},
{
layerId = "6256A6A1-72B9-4ADD-8383-8893F8BF5D61";
paths = (
{
closed = 1;
nodes = (
"280 262 LINE",
"269 260 OFFCURVE",
"260 261 OFFCURVE",
"260 276 CURVE SMOOTH",
"260 341 OFFCURVE",
"425 355 OFFCURVE",
"425 519 CURVE SMOOTH",
"425 634 OFFCURVE",
"345 710 OFFCURVE",
"222 710 CURVE SMOOTH",
"97 710 OFFCURVE",
"10 630 OFFCURVE",
"10 512 CURVE SMOOTH",
"10 486 LINE",
"134 481 LINE",
"134 512 LINE SMOOTH",
"134 562 OFFCURVE",
"167 597 OFFCURVE",
"219 597 CURVE SMOOTH",
"269 597 OFFCURVE",
"300 565 OFFCURVE",
"300 516 CURVE SMOOTH",
"300 401 OFFCURVE",
"130 408 OFFCURVE",
"130 270 CURVE SMOOTH",
"130 214 OFFCURVE",
"154 162 OFFCURVE",
"268 182 CURVE"
);
},
{
closed = 1;
nodes = (
"249 -1 OFFCURVE",
"284 32 OFFCURVE",
"284 74 CURVE SMOOTH",
"284 115 OFFCURVE",
"249 148 OFFCURVE",
"208 148 CURVE SMOOTH",
"168 148 OFFCURVE",
"133 115 OFFCURVE",
"133 74 CURVE SMOOTH",
"133 32 OFFCURVE",
"166 -1 OFFCURVE",
"208 -1 CURVE SMOOTH"
);
}
);
width = 445;
}
);
unicode = 003F;
},
{
color = 1;
glyphname = quotedbl;
lastChange = "2016-10-17 10:26:32 +0000";
layers = (
{
layerId = "262880E7-CFE1-4BDA-902E-E24798F3240A";
paths = (
{
closed = 1;
nodes = (
"319 501 LINE",
"319 693 LINE",
"297 693 LINE",
"297 501 LINE"
);
},
{
closed = 1;
nodes = (
"209 501 LINE",
"209 693 LINE",
"187 693 LINE",
"187 501 LINE"
);
}
);
width = 506;
},
{
layerId = "4F25946F-63AC-42D6-8D55-01CF6A99025B";
paths = (
{
closed = 1;
nodes = (
"511 481 LINE",
"521 693 LINE",
"319 693 LINE",
"327 481 LINE"
);
},
{
closed = 1;
nodes = (
"241 481 LINE",
"251 693 LINE",
"49 693 LINE",
"59 481 LINE"
);
}
);
width = 570;
},
{
layerId = "6256A6A1-72B9-4ADD-8383-8893F8BF5D61";
paths = (
{
closed = 1;
nodes = (
"396 490 LINE",
"402 693 LINE",
"283 693 LINE",
"287 490 LINE"
);
},
{
closed = 1;
nodes = (
"200 490 LINE",
"206 693 LINE",
"87 693 LINE",
"93 490 LINE"
);
}
);
width = 489;
}
);
unicode = 0022;
},
{
color = 1;
glyphname = quotesingle;
lastChange = "2016-10-17 10:26:30 +0000";
layers = (
{
layerId = "262880E7-CFE1-4BDA-902E-E24798F3240A";
paths = (
{
closed = 1;
nodes = (
"209 697 LINE",
"187 697 LINE",
"187 507 LINE",
"209 507 LINE"
);
}
);
width = 396;
},
{
layerId = "4F25946F-63AC-42D6-8D55-01CF6A99025B";
paths = (
{
closed = 1;
nodes = (
"233 699 LINE",
"49 699 LINE",
"59 452 LINE",
"223 452 LINE"
);
}
);
width = 282;
},
{
layerId = "6256A6A1-72B9-4ADD-8383-8893F8BF5D61";
paths = (
{
closed = 1;
nodes = (
"196 698 LINE",
"87 698 LINE",
"93 478 LINE",
"191 478 LINE"
);
}
);
width = 284;
}
);
unicode = 0027;
},
{
color = 1;
glyphname = semicolon;
lastChange = "2016-10-17 10:26:34 +0000";
layers = (
{
layerId = "262880E7-CFE1-4BDA-902E-E24798F3240A";
paths = (
{
closed = 1;
nodes = (
"228 370 OFFCURVE",
"247 388 OFFCURVE",
"247 411 CURVE",
"247 433 OFFCURVE",
"228 451 OFFCURVE",
"206 451 CURVE SMOOTH",
"184 451 OFFCURVE",
"165 433 OFFCURVE",
"165 411 CURVE SMOOTH",
"165 388 OFFCURVE",
"183 370 OFFCURVE",
"206 370 CURVE SMOOTH"
);
},
{
closed = 1;
nodes = (
"186 -60 LINE",
"222 147 LINE",
"200 147 LINE",
"165 -60 LINE"
);
}
);
width = 406;
},
{
layerId = "4F25946F-63AC-42D6-8D55-01CF6A99025B";
paths = (
{
closed = 1;
nodes = (
"195 288 OFFCURVE",
"244 334 OFFCURVE",
"244 393 CURVE",
"244 450 OFFCURVE",
"195 496 OFFCURVE",
"138 496 CURVE SMOOTH",
"81 496 OFFCURVE",
"32 450 OFFCURVE",
"32 393 CURVE SMOOTH",
"32 334 OFFCURVE",
"79 288 OFFCURVE",
"138 288 CURVE SMOOTH"
);
},
{
closed = 1;
nodes = (
"179 -46 LINE",
"230 183 LINE",
"60 182 LINE",
"41 -46 LINE"
);
}
);
width = 270;
},
{
layerId = "6256A6A1-72B9-4ADD-8383-8893F8BF5D61";
paths = (
{
closed = 1;
nodes = (
"185 326 OFFCURVE",
"220 359 OFFCURVE",
"220 401 CURVE",
"220 442 OFFCURVE",
"185 475 OFFCURVE",
"144 475 CURVE SMOOTH",
"103 475 OFFCURVE",
"68 442 OFFCURVE",
"68 401 CURVE SMOOTH",
"68 359 OFFCURVE",
"101 326 OFFCURVE",
"144 326 CURVE SMOOTH"
);
},
{
closed = 1;
nodes = (
"156 -52 LINE",
"201 166 LINE",
"99 166 LINE",
"73 -52 LINE"
);
}
);
width = 282;
}
);
unicode = 003B;
},
{
color = 1;
glyphname = slash;
lastChange = "2016-10-17 10:26:32 +0000";
layers = (
{
layerId = "262880E7-CFE1-4BDA-902E-E24798F3240A";
paths = (
{
closed = 1;
nodes = (
"121 0 LINE",
"259 700 LINE",
"237 700 LINE",
"99 0 LINE"
);
}
);
width = 358;
},
{
layerId = "4F25946F-63AC-42D6-8D55-01CF6A99025B";
paths = (
{
closed = 1;
nodes = (
"175 0 LINE",
"313 700 LINE",
"111 700 LINE",
"-27 0 LINE"
);
}
);
width = 286;
},
{
layerId = "6256A6A1-72B9-4ADD-8383-8893F8BF5D61";
paths = (
{
closed = 1;
nodes = (
"117 0 LINE",
"255 700 LINE",
"137 700 LINE",
"-1 0 LINE"
);
}
);
width = 254;
}
);
unicode = 002F;
},
{
color = 1;
glyphname = quotesingle.alt;
lastChange = "2016-10-17 10:26:30 +0000";
layers = (
{
layerId = "262880E7-CFE1-4BDA-902E-E24798F3240A";
paths = (
{
closed = 1;
nodes = (
"209 699 LINE",
"187 699 LINE",
"187 507 LINE",
"209 507 LINE"
);
}
);
width = 396;
},
{
layerId = "4F25946F-63AC-42D6-8D55-01CF6A99025B";
paths = (
{
closed = 1;
nodes = (
"242 603 LINE",
"58 603 LINE",
"49 344 LINE",
"180 344 LINE"
);
}
);
width = 267;
},
{
layerId = "6256A6A1-72B9-4ADD-8383-8893F8BF5D61";
paths = (
{
closed = 1;
nodes = (
"202 648 LINE",
"93 648 LINE",
"88 420 LINE",
"169 420 LINE"
);
}
);
width = 276;
}
);
},
{
color = 1;
glyphname = emdash;
lastChange = "2016-10-17 10:26:31 +0000";
layers = (
{
layerId = "262880E7-CFE1-4BDA-902E-E24798F3240A";
paths = (
{
closed = 1;
nodes = (
"542 251 LINE",
"542 272 LINE",
"134 272 LINE",
"134 251 LINE"
);
}
);
width = 676;
},
{
layerId = "4F25946F-63AC-42D6-8D55-01CF6A99025B";
paths = (
{
closed = 1;
nodes = (
"638 180 LINE",
"638 368 LINE",
"38 368 LINE",
"38 180 LINE"
);
}
);
width = 676;
},
{
layerId = "6256A6A1-72B9-4ADD-8383-8893F8BF5D61";
paths = (
{
closed = 1;
nodes = (
"575 213 LINE",
"575 323 LINE",
"64 323 LINE",
"64 213 LINE"
);
}
);
width = 639;
}
);
unicode = 2014;
},
{
color = 1;
glyphname = hyphen;
lastChange = "2016-10-17 10:26:31 +0000";
layers = (
{
layerId = "4F25946F-63AC-42D6-8D55-01CF6A99025B";
paths = (
{
closed = 1;
nodes = (
"318 180 LINE",
"318 368 LINE",
"38 368 LINE",
"38 180 LINE"
);
}
);
width = 356;
},
{
layerId = "262880E7-CFE1-4BDA-902E-E24798F3240A";
paths = (
{
closed = 1;
nodes = (
"392 251 LINE",
"392 272 LINE",
"134 272 LINE",
"134 251 LINE"
);
}
);
width = 526;
},
{
layerId = "6256A6A1-72B9-4ADD-8383-8893F8BF5D61";
paths = (
{
closed = 1;
nodes = (
"334 213 LINE",
"334 323 LINE",
"64 323 LINE",
"64 213 LINE"
);
}
);
width = 398;
}
);
unicode = 002D;
},
{
color = 1;
glyphname = dollar;
lastChange = "2016-10-17 10:26:30 +0000";
layers = (
{
layerId = "4F25946F-63AC-42D6-8D55-01CF6A99025B";
paths = (
{
closed = 1;
nodes = (
"426 -10 OFFCURVE",
"520 74 OFFCURVE",
"520 200 CURVE SMOOTH",
"520 312 OFFCURVE",
"446 381 OFFCURVE",
"333 425 CURVE SMOOTH",
"287 443 OFFCURVE",
"234 456 OFFCURVE",
"234 489 CURVE SMOOTH",
"234 503 OFFCURVE",
"244 518 OFFCURVE",
"268 518 CURVE SMOOTH",
"294 518 OFFCURVE",
"309 501 OFFCURVE",
"309 479 CURVE SMOOTH",
"309 464 LINE",
"521 474 LINE",
"521 479 LINE SMOOTH",
"521 617 OFFCURVE",
"414 710 OFFCURVE",
"262 710 CURVE SMOOTH",
"115 710 OFFCURVE",
"19 624 OFFCURVE",
"19 498 CURVE SMOOTH",
"19 389 OFFCURVE",
"92 318 OFFCURVE",
"206 275 CURVE SMOOTH",
"248 259 OFFCURVE",
"304 245 OFFCURVE",
"304 214 CURVE SMOOTH",
"304 201 OFFCURVE",
"295 182 OFFCURVE",
"269 182 CURVE SMOOTH",
"245 182 OFFCURVE",
"230 199 OFFCURVE",
"230 231 CURVE SMOOTH",
"230 236 LINE",
"7 226 LINE",
"7 221 LINE SMOOTH",
"7 83 OFFCURVE",
"113 -10 OFFCURVE",
"273 -10 CURVE SMOOTH"
);
},
{
closed = 1;
nodes = (
"344 -53 LINE",
"344 93 LINE",
"223 93 LINE",
"223 -53 LINE"
);
},
{
closed = 1;
nodes = (
"341 599 LINE",
"341 745 LINE",
"220 745 LINE",
"220 599 LINE"
);
}
);
width = 533;
},
{
layerId = "262880E7-CFE1-4BDA-902E-E24798F3240A";
paths = (
{
closed = 1;
nodes = (
"444 -9 OFFCURVE",
"508 50 OFFCURVE",
"508 149 CURVE SMOOTH",
"508 255 OFFCURVE",
"435 307 OFFCURVE",
"353 361 CURVE SMOOTH",
"272 414 OFFCURVE",
"208 459 OFFCURVE",
"208 552 CURVE SMOOTH",
"208 636 OFFCURVE",
"260 690 OFFCURVE",
"344 690 CURVE SMOOTH",
"428 690 OFFCURVE",
"480 637 OFFCURVE",
"480 550 CURVE SMOOTH",
"480 500 LINE",
"502 500 LINE",
"502 550 LINE SMOOTH",
"502 650 OFFCURVE",
"442 709 OFFCURVE",
"344 709 CURVE SMOOTH",
"246 709 OFFCURVE",
"186 649 OFFCURVE",
"186 553 CURVE SMOOTH",
"186 446 OFFCURVE",
"261 394 OFFCURVE",
"339 342 CURVE SMOOTH",
"416 291 OFFCURVE",
"486 244 OFFCURVE",
"486 148 CURVE SMOOTH",
"486 63 OFFCURVE",
"430 11 OFFCURVE",
"348 11 CURVE SMOOTH",
"260 11 OFFCURVE",
"214 64 OFFCURVE",
"214 150 CURVE SMOOTH",
"214 200 LINE",
"192 200 LINE",
"192 150 LINE SMOOTH",
"192 50 OFFCURVE",
"247 -9 OFFCURVE",
"349 -9 CURVE SMOOTH"
);
},
{
closed = 1;
nodes = (
"354 -88 LINE",
"354 2 LINE",
"331 2 LINE",
"331 -88 LINE"
);
},
{
closed = 1;
nodes = (
"354 702 LINE",
"354 792 LINE",
"331 792 LINE",
"331 702 LINE"
);
}
);
width = 694;
},
{
associatedMasterId = "4F25946F-63AC-42D6-8D55-01CF6A99025B";
layerId = "E869EA52-1DFA-43F8-82AD-AF9382669512";
name = "DemiBold{119,100}";
paths = (
{
closed = 1;
nodes = (
"387 -10 OFFCURVE",
"467 63 OFFCURVE",
"467 176 CURVE SMOOTH",
"467 286 OFFCURVE",
"394 347 OFFCURVE",
"295 395 CURVE SMOOTH",
"233 430 OFFCURVE",
"175 457 OFFCURVE",
"175 518 CURVE SMOOTH",
"175 565 OFFCURVE",
"204 598 OFFCURVE",
"256 598 CURVE SMOOTH",
"309 598 OFFCURVE",
"341 564 OFFCURVE",
"341 512 CURVE SMOOTH",
"341 481 LINE",
"465 486 LINE",
"465 512 LINE SMOOTH",
"465 632 OFFCURVE",
"380 710 OFFCURVE",
"253 710 CURVE SMOOTH",
"129 710 OFFCURVE",
"49 636 OFFCURVE",
"49 524 CURVE SMOOTH",
"49 415 OFFCURVE",
"123 353 OFFCURVE",
"221 306 CURVE SMOOTH",
"279 274 OFFCURVE",
"341 245 OFFCURVE",
"341 183 CURVE SMOOTH",
"341 137 OFFCURVE",
"311 103 OFFCURVE",
"259 103 CURVE SMOOTH",
"205 103 OFFCURVE",
"176 136 OFFCURVE",
"176 193 CURVE SMOOTH",
"176 219 LINE",
"46 214 LINE",
"46 188 LINE SMOOTH",
"46 68 OFFCURVE",
"128 -10 OFFCURVE",
"261 -10 CURVE SMOOTH"
);
},
{
closed = 1;
nodes = (
"306 -80 LINE",
"306 40 LINE",
"203 40 LINE",
"203 -80 LINE"
);
},
{
closed = 1;
nodes = (
"309 652 LINE",
"309 777 LINE",
"205 777 LINE",
"205 652 LINE"
);
}
);
width = 513;
},
{
layerId = "6256A6A1-72B9-4ADD-8383-8893F8BF5D61";
paths = (
{
closed = 1;
nodes = (
"390 -10 OFFCURVE",
"470 63 OFFCURVE",
"470 176 CURVE SMOOTH",
"470 286 OFFCURVE",
"397 347 OFFCURVE",
"298 395 CURVE SMOOTH",
"236 430 OFFCURVE",
"178 457 OFFCURVE",
"178 518 CURVE SMOOTH",
"178 565 OFFCURVE",
"207 598 OFFCURVE",
"259 598 CURVE SMOOTH",
"312 598 OFFCURVE",
"344 564 OFFCURVE",
"344 512 CURVE SMOOTH",
"344 481 LINE",
"468 486 LINE",
"468 512 LINE SMOOTH",
"468 632 OFFCURVE",
"383 710 OFFCURVE",
"256 710 CURVE SMOOTH",
"132 710 OFFCURVE",
"52 636 OFFCURVE",
"52 524 CURVE SMOOTH",
"52 415 OFFCURVE",
"126 353 OFFCURVE",
"224 306 CURVE SMOOTH",
"282 274 OFFCURVE",
"344 245 OFFCURVE",
"344 183 CURVE SMOOTH",
"344 137 OFFCURVE",
"314 103 OFFCURVE",
"262 103 CURVE SMOOTH",
"208 103 OFFCURVE",
"179 136 OFFCURVE",
"179 193 CURVE SMOOTH",
"179 219 LINE",
"49 214 LINE",
"49 188 LINE SMOOTH",
"49 68 OFFCURVE",
"131 -10 OFFCURVE",
"264 -10 CURVE SMOOTH"
);
},
{
closed = 1;
nodes = (
"309 -80 LINE",
"309 40 LINE",
"206 40 LINE",
"206 -80 LINE"
);
},
{
closed = 1;
nodes = (
"312 652 LINE",
"312 777 LINE",
"208 777 LINE",
"208 652 LINE"
);
}
);
width = 519;
}
);
unicode = 0024;
},
{
color = 1;
glyphname = at;
lastChange = "2016-10-17 10:26:31 +0000";
layers = (
{
layerId = "262880E7-CFE1-4BDA-902E-E24798F3240A";
paths = (
{
closed = 1;
nodes = (
"733 -68 OFFCURVE",
"895 92 OFFCURVE",
"895 290 CURVE SMOOTH",
"895 488 OFFCURVE",
"733 648 OFFCURVE",
"534 648 CURVE SMOOTH",
"335 648 OFFCURVE",
"173 488 OFFCURVE",
"173 290 CURVE SMOOTH",
"173 92 OFFCURVE",
"335 -68 OFFCURVE",
"534 -68 CURVE SMOOTH"
);
},
{
closed = 1;
nodes = (
"347 -50 OFFCURVE",
"195 102 OFFCURVE",
"195 290 CURVE SMOOTH",
"195 478 OFFCURVE",
"347 630 OFFCURVE",
"534 630 CURVE SMOOTH",
"721 630 OFFCURVE",
"873 478 OFFCURVE",
"873 290 CURVE SMOOTH",
"873 102 OFFCURVE",
"721 -50 OFFCURVE",
"534 -50 CURVE SMOOTH"
);
},
{
closed = 1;
nodes = (
"600 105 OFFCURVE",
"644 152 OFFCURVE",
"644 227 CURVE SMOOTH",
"644 369 LINE SMOOTH",
"644 444 OFFCURVE",
"600 491 OFFCURVE",
"528 491 CURVE SMOOTH",
"455 491 OFFCURVE",
"407 445 OFFCURVE",
"407 370 CURVE SMOOTH",
"407 226 LINE SMOOTH",
"407 151 OFFCURVE",
"455 105 OFFCURVE",
"528 105 CURVE SMOOTH"
);
},
{
closed = 1;
nodes = (
"463 121 OFFCURVE",
"424 161 OFFCURVE",
"424 226 CURVE SMOOTH",
"424 370 LINE SMOOTH",
"424 435 OFFCURVE",
"465 475 OFFCURVE",
"528 475 CURVE SMOOTH",
"592 475 OFFCURVE",
"633 435 OFFCURVE",
"633 370 CURVE SMOOTH",
"633 226 LINE SMOOTH",
"633 161 OFFCURVE",
"594 121 OFFCURVE",
"528 121 CURVE SMOOTH"
);
},
{
closed = 1;
nodes = (
"649 110 LINE",
"649 486 LINE",
"633 486 LINE",
"633 110 LINE"
);
}
);
width = 1068;
},
{
layerId = "4F25946F-63AC-42D6-8D55-01CF6A99025B";
paths = (
{
closed = 1;
nodes = (
"560 -53 OFFCURVE",
"722 108 OFFCURVE",
"722 306 CURVE SMOOTH",
"722 504 OFFCURVE",
"560 665 OFFCURVE",
"362 665 CURVE SMOOTH",
"164 665 OFFCURVE",
"2 504 OFFCURVE",
"2 306 CURVE SMOOTH",
"2 108 OFFCURVE",
"164 -53 OFFCURVE",
"362 -53 CURVE SMOOTH"
);
},
{
closed = 1;
nodes = (
"227 69 OFFCURVE",
"127 170 OFFCURVE",
"127 306 CURVE SMOOTH",
"127 442 OFFCURVE",
"227 543 OFFCURVE",
"362 543 CURVE SMOOTH",
"497 543 OFFCURVE",
"597 442 OFFCURVE",
"597 306 CURVE SMOOTH",
"597 170 OFFCURVE",
"497 69 OFFCURVE",
"362 69 CURVE SMOOTH"
);
},
{
closed = 1;
nodes = (
"383 176 OFFCURVE",
"426 236 OFFCURVE",
"426 283 CURVE SMOOTH",
"426 290 LINE SMOOTH",
"426 295 OFFCURVE",
"418 419 OFFCURVE",
"326 419 CURVE",
"271 419 OFFCURVE",
"238 392 OFFCURVE",
"238 345 CURVE SMOOTH",
"238 255 LINE SMOOTH",
"238 213 OFFCURVE",
"263 176 OFFCURVE",
"319 176 CURVE SMOOTH"
);
},
{
closed = 1;
nodes = (
"344 258 OFFCURVE",
"336 265 OFFCURVE",
"336 277 CURVE SMOOTH",
"336 320 LINE SMOOTH",
"336 332 OFFCURVE",
"344 340 OFFCURVE",
"356 340 CURVE SMOOTH",
"368 340 OFFCURVE",
"377 332 OFFCURVE",
"377 320 CURVE SMOOTH",
"377 277 LINE SMOOTH",
"377 265 OFFCURVE",
"368 258 OFFCURVE",
"356 258 CURVE SMOOTH"
);
},
{
closed = 1;
nodes = (
"475 180 LINE",
"475 416 LINE",
"377 416 LINE",
"377 180 LINE"
);
}
);
width = 724;
},
{
layerId = "6256A6A1-72B9-4ADD-8383-8893F8BF5D61";
paths = (
{
closed = 1;
nodes = (
"600 -60 OFFCURVE",
"762 101 OFFCURVE",
"762 299 CURVE SMOOTH",
"762 497 OFFCURVE",
"600 657 OFFCURVE",
"401 657 CURVE SMOOTH",
"203 657 OFFCURVE",
"41 497 OFFCURVE",
"41 299 CURVE SMOOTH",
"41 101 OFFCURVE",
"203 -60 OFFCURVE",
"401 -60 CURVE SMOOTH"
);
},
{
closed = 1;
nodes = (
"242 14 OFFCURVE",
"118 138 OFFCURVE",
"118 299 CURVE SMOOTH",
"118 459 OFFCURVE",
"242 583 OFFCURVE",
"401 583 CURVE SMOOTH",
"560 583 OFFCURVE",
"684 459 OFFCURVE",
"684 299 CURVE SMOOTH",
"684 138 OFFCURVE",
"560 14 OFFCURVE",
"401 14 CURVE SMOOTH"
);
},
{
closed = 1;
nodes = (
"443 143 OFFCURVE",
"486 197 OFFCURVE",
"486 257 CURVE SMOOTH",
"486 327 LINE SMOOTH",
"486 364 OFFCURVE",
"462 452 OFFCURVE",
"379 452 CURVE SMOOTH",
"316 452 OFFCURVE",
"276 417 OFFCURVE",
"276 357 CURVE SMOOTH",
"276 242 LINE SMOOTH",
"276 184 OFFCURVE",
"311 143 OFFCURVE",
"375 143 CURVE SMOOTH"
);
},
{
closed = 1;
nodes = (
"359 194 OFFCURVE",
"336 217 OFFCURVE",
"336 253 CURVE SMOOTH",
"336 343 LINE SMOOTH",
"336 380 OFFCURVE",
"360 403 OFFCURVE",
"395 403 CURVE SMOOTH",
"431 403 OFFCURVE",
"455 380 OFFCURVE",
"455 343 CURVE SMOOTH",
"455 253 LINE SMOOTH",
"455 217 OFFCURVE",
"432 194 OFFCURVE",
"395 194 CURVE SMOOTH"
);
},
{
closed = 1;
nodes = (
"515 148 LINE",
"515 448 LINE",
"455 448 LINE",
"455 148 LINE"
);
}
);
width = 803;
}
);
unicode = 0040;
},
{
color = 1;
glyphname = copyright;
lastChange = "2016-10-17 10:26:34 +0000";
layers = (
{
layerId = "262880E7-CFE1-4BDA-902E-E24798F3240A";
paths = (
{
closed = 1;
nodes = (
"733 -68 OFFCURVE",
"895 92 OFFCURVE",
"895 290 CURVE SMOOTH",
"895 488 OFFCURVE",
"733 648 OFFCURVE",
"534 648 CURVE SMOOTH",
"335 648 OFFCURVE",
"173 488 OFFCURVE",
"173 290 CURVE SMOOTH",
"173 92 OFFCURVE",
"335 -68 OFFCURVE",
"534 -68 CURVE SMOOTH"
);
},
{
closed = 1;
nodes = (
"347 -50 OFFCURVE",
"195 102 OFFCURVE",
"195 290 CURVE SMOOTH",
"195 478 OFFCURVE",
"347 630 OFFCURVE",
"534 630 CURVE SMOOTH",
"721 630 OFFCURVE",
"873 478 OFFCURVE",
"873 290 CURVE SMOOTH",
"873 102 OFFCURVE",
"721 -50 OFFCURVE",
"534 -50 CURVE SMOOTH"
);
},
{
closed = 1;
nodes = (
"606 103 OFFCURVE",
"652 148 OFFCURVE",
"652 223 CURVE SMOOTH",
"652 225 LINE",
"636 225 LINE",
"636 223 LINE SMOOTH",
"636 158 OFFCURVE",
"597 118 OFFCURVE",
"531 118 CURVE SMOOTH",
"466 118 OFFCURVE",
"427 158 OFFCURVE",
"427 223 CURVE SMOOTH",
"427 367 LINE SMOOTH",
"427 433 OFFCURVE",
"468 472 OFFCURVE",
"531 472 CURVE SMOOTH",
"595 472 OFFCURVE",
"636 433 OFFCURVE",
"636 367 CURVE SMOOTH",
"636 366 LINE",
"652 366 LINE",
"652 367 LINE SMOOTH",
"652 442 OFFCURVE",
"606 487 OFFCURVE",
"531 487 CURVE SMOOTH",
"457 487 OFFCURVE",
"410 442 OFFCURVE",
"410 367 CURVE SMOOTH",
"410 223 LINE SMOOTH",
"410 148 OFFCURVE",
"457 103 OFFCURVE",
"531 103 CURVE SMOOTH"
);
}
);
width = 1068;
},
{
layerId = "4F25946F-63AC-42D6-8D55-01CF6A99025B";
paths = (
{
closed = 1;
nodes = (
"560 -53 OFFCURVE",
"722 108 OFFCURVE",
"722 306 CURVE SMOOTH",
"722 504 OFFCURVE",
"560 665 OFFCURVE",
"362 665 CURVE SMOOTH",
"164 665 OFFCURVE",
"2 504 OFFCURVE",
"2 306 CURVE SMOOTH",
"2 108 OFFCURVE",
"164 -53 OFFCURVE",
"362 -53 CURVE SMOOTH"
);
},
{
closed = 1;
nodes = (
"227 69 OFFCURVE",
"127 170 OFFCURVE",
"127 306 CURVE SMOOTH",
"127 442 OFFCURVE",
"227 543 OFFCURVE",
"362 543 CURVE SMOOTH",
"497 543 OFFCURVE",
"597 442 OFFCURVE",
"597 306 CURVE SMOOTH",
"597 170 OFFCURVE",
"497 69 OFFCURVE",
"362 69 CURVE SMOOTH"
);
},
{
closed = 1;
nodes = (
"434 170 OFFCURVE",
"482 214 OFFCURVE",
"487 290 CURVE",
"487 291 LINE",
"382 291 LINE",
"382 277 LINE SMOOTH",
"382 265 OFFCURVE",
"373 257 OFFCURVE",
"360 257 CURVE SMOOTH",
"347 257 OFFCURVE",
"338 265 OFFCURVE",
"338 277 CURVE",
"338 323 LINE",
"338 336 OFFCURVE",
"347 344 OFFCURVE",
"360 344 CURVE SMOOTH",
"373 344 OFFCURVE",
"382 336 OFFCURVE",
"382 323 CURVE",
"382 313 LINE",
"487 313 LINE",
"487 314 LINE",
"486 386 OFFCURVE",
"439 428 OFFCURVE",
"359 428 CURVE SMOOTH",
"279 428 OFFCURVE",
"232 382 OFFCURVE",
"232 302 CURVE SMOOTH",
"232 298 LINE SMOOTH",
"232 217 OFFCURVE",
"279 170 OFFCURVE",
"359 170 CURVE SMOOTH"
);
}
);
width = 724;
},
{
layerId = "6256A6A1-72B9-4ADD-8383-8893F8BF5D61";
paths = (
{
closed = 1;
nodes = (
"600 -60 OFFCURVE",
"762 101 OFFCURVE",
"762 299 CURVE SMOOTH",
"762 497 OFFCURVE",
"600 657 OFFCURVE",
"401 657 CURVE SMOOTH",
"203 657 OFFCURVE",
"41 497 OFFCURVE",
"41 299 CURVE SMOOTH",
"41 101 OFFCURVE",
"203 -60 OFFCURVE",
"401 -60 CURVE SMOOTH"
);
},
{
closed = 1;
nodes = (
"242 14 OFFCURVE",
"118 138 OFFCURVE",
"118 299 CURVE SMOOTH",
"118 459 OFFCURVE",
"242 583 OFFCURVE",
"401 583 CURVE SMOOTH",
"560 583 OFFCURVE",
"684 459 OFFCURVE",
"684 299 CURVE SMOOTH",
"684 138 OFFCURVE",
"560 14 OFFCURVE",
"401 14 CURVE SMOOTH"
);
},
{
closed = 1;
nodes = (
"473 139 OFFCURVE",
"523 183 OFFCURVE",
"523 259 CURVE SMOOTH",
"523 260 LINE",
"459 260 LINE",
"459 252 LINE SMOOTH",
"459 215 OFFCURVE",
"436 193 OFFCURVE",
"399 193 CURVE SMOOTH",
"362 193 OFFCURVE",
"339 215 OFFCURVE",
"339 252 CURVE SMOOTH",
"339 343 LINE SMOOTH",
"339 381 OFFCURVE",
"363 403 OFFCURVE",
"399 403 CURVE SMOOTH",
"435 403 OFFCURVE",
"459 381 OFFCURVE",
"459 343 CURVE SMOOTH",
"459 338 LINE",
"523 338 LINE",
"523 339 LINE SMOOTH",
"523 412 OFFCURVE",
"476 455 OFFCURVE",
"398 455 CURVE SMOOTH",
"321 455 OFFCURVE",
"274 410 OFFCURVE",
"274 332 CURVE SMOOTH",
"274 263 LINE SMOOTH",
"274 185 OFFCURVE",
"321 139 OFFCURVE",
"398 139 CURVE SMOOTH"
);
}
);
width = 803;
}
);
unicode = 00A9;
},
{
color = 1;
glyphname = registered;
lastChange = "2016-10-17 10:26:30 +0000";
layers = (
{
layerId = "262880E7-CFE1-4BDA-902E-E24798F3240A";
paths = (
{
closed = 1;
nodes = (
"733 -68 OFFCURVE",
"895 92 OFFCURVE",
"895 290 CURVE SMOOTH",
"895 488 OFFCURVE",
"733 648 OFFCURVE",
"534 648 CURVE SMOOTH",
"335 648 OFFCURVE",
"173 488 OFFCURVE",
"173 290 CURVE SMOOTH",
"173 92 OFFCURVE",
"335 -68 OFFCURVE",
"534 -68 CURVE SMOOTH"
);
},
{
closed = 1;
nodes = (
"347 -50 OFFCURVE",
"195 102 OFFCURVE",
"195 290 CURVE SMOOTH",
"195 478 OFFCURVE",
"347 630 OFFCURVE",
"534 630 CURVE SMOOTH",
"721 630 OFFCURVE",
"873 478 OFFCURVE",
"873 290 CURVE SMOOTH",
"873 102 OFFCURVE",
"721 -50 OFFCURVE",
"534 -50 CURVE SMOOTH"
);
},
{
closed = 1;
nodes = (
"473 104 LINE",
"473 488 LINE",
"545 488 LINE SMOOTH",
"601 488 OFFCURVE",
"636 452 OFFCURVE",
"636 393 CURVE SMOOTH",
"636 334 OFFCURVE",
"601 298 OFFCURVE",
"545 298 CURVE SMOOTH",
"470 298 LINE",
"470 286 LINE",
"545 286 LINE SMOOTH",
"608 286 OFFCURVE",
"648 327 OFFCURVE",
"648 393 CURVE SMOOTH",
"648 459 OFFCURVE",
"608 499 OFFCURVE",
"545 499 CURVE SMOOTH",
"460 499 LINE",
"460 104 LINE"
);
},
{
closed = 1;
nodes = (
"622 104 LINE",
"557 296 LINE",
"546 292 LINE",
"609 104 LINE"
);
}
